<?xml version="1.0" encoding="UTF-8"?>
<!DOCTYPE svg PUBLIC "-//W3C//DTD SVG 1.1//EN" "http://www.w3.org/Graphics/SVG/1.1/DTD/svg11.dtd">
<svg xmlns="http://www.w3.org/2000/svg" version="1.1" width="264px" height="177px" style="shape-rendering:geometricPrecision; text-rendering:geometricPrecision; image-rendering:optimizeQuality; fill-rule:evenodd; clip-rule:evenodd" xmlns:xlink="http://www.w3.org/1999/xlink">
<g><path style="opacity:1" fill="#fe8200" d="M 212.5,-0.5 C 216.5,-0.5 220.5,-0.5 224.5,-0.5C 224.5,0.5 224.5,1.5 224.5,2.5C 226.5,2.5 228.5,2.5 230.5,2.5C 230.5,3.5 230.5,4.5 230.5,5.5C 232.5,5.5 234.5,5.5 236.5,5.5C 236.5,6.5 236.5,7.5 236.5,8.5C 237.5,8.5 238.5,8.5 239.5,8.5C 239.5,9.5 239.5,10.5 239.5,11.5C 240.5,11.5 241.5,11.5 242.5,11.5C 242.5,12.5 242.5,13.5 242.5,14.5C 243.5,14.5 244.5,14.5 245.5,14.5C 245.5,15.5 245.5,16.5 245.5,17.5C 246.5,17.5 247.5,17.5 248.5,17.5C 248.5,18.5 248.5,19.5 248.5,20.5C 249.5,20.5 250.5,20.5 251.5,20.5C 251.5,22.5 251.5,24.5 251.5,26.5C 252.5,26.5 253.5,26.5 254.5,26.5C 254.5,28.5 254.5,30.5 254.5,32.5C 255.5,32.5 256.5,32.5 257.5,32.5C 257.5,36.5 257.5,40.5 257.5,44.5C 255.5,44.5 253.5,44.5 251.5,44.5C 251.5,41.5 251.5,38.5 251.5,35.5C 250.5,35.5 249.5,35.5 248.5,35.5C 248.5,33.5 248.5,31.5 248.5,29.5C 247.5,29.5 246.5,29.5 245.5,29.5C 245.5,27.5 245.5,25.5 245.5,23.5C 244.5,23.5 243.5,23.5 242.5,23.5C 242.5,22.5 242.5,21.5 242.5,20.5C 241.5,20.5 240.5,20.5 239.5,20.5C 239.5,19.5 239.5,18.5 239.5,17.5C 238.5,17.5 237.5,17.5 236.5,17.5C 236.5,16.5 236.5,15.5 236.5,14.5C 235.5,14.5 234.5,14.5 233.5,14.5C 233.5,13.5 233.5,12.5 233.5,11.5C 231.5,11.5 229.5,11.5 227.5,11.5C 227.5,10.5 227.5,9.5 227.5,8.5C 225.5,8.5 223.5,8.5 221.5,8.5C 221.5,7.5 221.5,6.5 221.5,5.5C 218.5,5.5 215.5,5.5 212.5,5.5C 212.5,3.5 212.5,1.5 212.5,-0.5 Z"/></g>
<g><path style="opacity:1" fill="#fe8200" d="M 158.5,176.5 C 156.5,176.5 154.5,176.5 152.5,176.5C 152.5,175.5 152.5,174.5 152.5,173.5C 151.5,173.5 150.5,173.5 149.5,173.5C 149.5,172.5 149.5,171.5 149.5,170.5C 148.5,170.5 147.5,170.5 146.5,170.5C 146.5,169.5 146.5,168.5 146.5,167.5C 145.5,167.5 144.5,167.5 143.5,167.5C 143.5,168.5 143.5,169.5 143.5,170.5C 142.5,170.5 141.5,170.5 140.5,170.5C 140.5,169.5 140.5,168.5 140.5,167.5C 139.5,167.5 138.5,167.5 137.5,167.5C 137.5,166.5 137.5,165.5 137.5,164.5C 136.5,164.5 135.5,164.5 134.5,164.5C 134.5,165.5 134.5,166.5 134.5,167.5C 133.5,167.5 132.5,167.5 131.5,167.5C 131.5,166.5 131.5,165.5 131.5,164.5C 130.5,164.5 129.5,164.5 128.5,164.5C 128.5,163.5 128.5,162.5 128.5,161.5C 127.5,161.5 126.5,161.5 125.5,161.5C 125.5,162.5 125.5,163.5 125.5,164.5C 124.5,164.5 123.5,164.5 122.5,164.5C 122.5,162.5 122.5,160.5 122.5,158.5C 124.5,158.5 126.5,158.5 128.5,158.5C 128.5,157.5 128.5,156.5 128.5,155.5C 130.5,155.5 132.5,155.5 134.5,155.5C 134.5,154.5 134.5,153.5 134.5,152.5C 137.5,152.5 140.5,152.5 143.5,152.5C 143.5,151.5 143.5,150.5 143.5,149.5C 147.5,149.5 151.5,149.5 155.5,149.5C 155.5,148.5 155.5,147.5 155.5,146.5C 159.5,146.5 163.5,146.5 167.5,146.5C 167.5,145.5 167.5,144.5 167.5,143.5C 170.5,143.5 173.5,143.5 176.5,143.5C 176.5,142.5 176.5,141.5 176.5,140.5C 179.5,140.5 182.5,140.5 185.5,140.5C 185.5,139.5 185.5,138.5 185.5,137.5C 188.5,137.5 191.5,137.5 194.5,137.5C 194.5,136.5 194.5,135.5 194.5,134.5C 196.5,134.5 198.5,134.5 200.5,134.5C 200.5,133.5 200.5,132.5 200.5,131.5C 201.5,131.5 202.5,131.5 203.5,131.5C 203.5,130.5 203.5,129.5 203.5,128.5C 204.5,128.5 205.5,128.5 206.5,128.5C 206.5,127.5 206.5,126.5 206.5,125.5C 207.5,125.5 208.5,125.5 209.5,125.5C 209.5,124.5 209.5,123.5 209.5,122.5C 210.5,122.5 211.5,122.5 212.5,122.5C 212.5,119.5 212.5,116.5 212.5,113.5C 210.5,113.5 208.5,113.5 206.5,113.5C 206.5,112.5 206.5,111.5 206.5,110.5C 194.5,110.5 182.5,110.5 170.5,110.5C 170.5,111.5 170.5,112.5 170.5,113.5C 166.5,113.5 162.5,113.5 158.5,113.5C 158.5,112.5 158.5,111.5 158.5,110.5C 151.5,110.5 144.5,110.5 137.5,110.5C 137.5,111.5 137.5,112.5 137.5,113.5C 136.5,113.5 135.5,113.5 134.5,113.5C 134.5,114.5 134.5,115.5 134.5,116.5C 133.5,116.5 132.5,116.5 131.5,116.5C 131.5,117.5 131.5,118.5 131.5,119.5C 130.5,119.5 129.5,119.5 128.5,119.5C 128.5,121.5 128.5,123.5 128.5,125.5C 140.5,125.5 152.5,125.5 164.5,125.5C 164.5,126.5 164.5,127.5 164.5,128.5C 138.5,128.5 112.5,128.5 86.5,128.5C 86.5,127.5 86.5,126.5 86.5,125.5C 91.5,125.5 96.5,125.5 101.5,125.5C 101.5,124.5 101.5,123.5 101.5,122.5C 104.5,122.5 107.5,122.5 110.5,122.5C 110.5,121.5 110.5,120.5 110.5,119.5C 112.5,119.5 114.5,119.5 116.5,119.5C 116.5,118.5 116.5,117.5 116.5,116.5C 118.5,116.5 120.5,116.5 122.5,116.5C 122.5,115.5 122.5,114.5 122.5,113.5C 123.5,113.5 124.5,113.5 125.5,113.5C 125.5,112.5 125.5,111.5 125.5,110.5C 126.5,110.5 127.5,110.5 128.5,110.5C 128.5,109.5 128.5,108.5 128.5,107.5C 129.5,107.5 130.5,107.5 131.5,107.5C 131.5,106.5 131.5,105.5 131.5,104.5C 132.5,104.5 133.5,104.5 134.5,104.5C 134.5,103.5 134.5,102.5 134.5,101.5C 135.5,101.5 136.5,101.5 137.5,101.5C 137.5,100.5 137.5,99.5 137.5,98.5C 138.5,98.5 139.5,98.5 140.5,98.5C 140.5,97.5 140.5,96.5 140.5,95.5C 141.5,95.5 142.5,95.5 143.5,95.5C 143.5,94.5 143.5,93.5 143.5,92.5C 144.5,92.5 145.5,92.5 146.5,92.5C 146.5,91.5 146.5,90.5 146.5,89.5C 147.5,89.5 148.5,89.5 149.5,89.5C 149.5,88.5 149.5,87.5 149.5,86.5C 150.5,86.5 151.5,86.5 152.5,86.5C 152.5,85.5 152.5,84.5 152.5,83.5C 153.5,83.5 154.5,83.5 155.5,83.5C 155.5,82.5 155.5,81.5 155.5,80.5C 156.5,80.5 157.5,80.5 158.5,80.5C 158.5,79.5 158.5,78.5 158.5,77.5C 159.5,77.5 160.5,77.5 161.5,77.5C 161.5,76.5 161.5,75.5 161.5,74.5C 162.5,74.5 163.5,74.5 164.5,74.5C 164.5,73.5 164.5,72.5 164.5,71.5C 165.5,71.5 166.5,71.5 167.5,71.5C 167.5,70.5 167.5,69.5 167.5,68.5C 168.5,68.5 169.5,68.5 170.5,68.5C 170.5,67.5 170.5,66.5 170.5,65.5C 171.5,65.5 172.5,65.5 173.5,65.5C 173.5,64.5 173.5,63.5 173.5,62.5C 175.5,62.5 177.5,62.5 179.5,62.5C 179.5,61.5 179.5,60.5 179.5,59.5C 181.5,59.5 183.5,59.5 185.5,59.5C 185.5,58.5 185.5,57.5 185.5,56.5C 188.5,56.5 191.5,56.5 194.5,56.5C 194.5,55.5 194.5,54.5 194.5,53.5C 198.5,53.5 202.5,53.5 206.5,53.5C 206.5,52.5 206.5,51.5 206.5,50.5C 205.5,50.5 204.5,50.5 203.5,50.5C 203.5,49.5 203.5,48.5 203.5,47.5C 200.5,47.5 197.5,47.5 194.5,47.5C 194.5,46.5 194.5,45.5 194.5,44.5C 187.5,44.5 180.5,44.5 173.5,44.5C 173.5,45.5 173.5,46.5 173.5,47.5C 171.5,47.5 169.5,47.5 167.5,47.5C 167.5,48.5 167.5,49.5 167.5,50.5C 165.5,50.5 163.5,50.5 161.5,50.5C 161.5,51.5 161.5,52.5 161.5,53.5C 159.5,53.5 157.5,53.5 155.5,53.5C 155.5,54.5 155.5,55.5 155.5,56.5C 153.5,56.5 151.5,56.5 149.5,56.5C 149.5,54.5 149.5,52.5 149.5,50.5C 146.5,50.5 143.5,50.5 140.5,50.5C 140.5,49.5 140.5,48.5 140.5,47.5C 141.5,47.5 142.5,47.5 143.5,47.5C 143.5,44.5 143.5,41.5 143.5,38.5C 142.5,38.5 141.5,38.5 140.5,38.5C 140.5,37.5 140.5,36.5 140.5,35.5C 139.5,35.5 138.5,35.5 137.5,35.5C 137.5,34.5 137.5,33.5 137.5,32.5C 136.5,32.5 135.5,32.5 134.5,32.5C 134.5,31.5 134.5,30.5 134.5,29.5C 133.5,29.5 132.5,29.5 131.5,29.5C 131.5,28.5 131.5,27.5 131.5,26.5C 127.5,26.5 123.5,26.5 119.5,26.5C 119.5,24.5 119.5,22.5 119.5,20.5C 114.5,20.5 109.5,20.5 104.5,20.5C 104.5,19.5 104.5,18.5 104.5,17.5C 103.5,17.5 102.5,17.5 101.5,17.5C 101.5,18.5 101.5,19.5 101.5,20.5C 100.5,20.5 99.5,20.5 98.5,20.5C 98.5,19.5 98.5,18.5 98.5,17.5C 97.5,17.5 96.5,17.5 95.5,17.5C 95.5,16.5 95.5,15.5 95.5,14.5C 82.5,14.5 69.5,14.5 56.5,14.5C 56.5,15.5 56.5,16.5 56.5,17.5C 52.5,17.5 48.5,17.5 44.5,17.5C 44.5,18.5 44.5,19.5 44.5,20.5C 52.5,20.5 60.5,20.5 68.5,20.5C 68.5,21.5 68.5,22.5 68.5,23.5C 56.5,23.5 44.5,23.5 32.5,23.5C 32.5,24.5 32.5,25.5 32.5,26.5C 30.5,26.5 28.5,26.5 26.5,26.5C 26.5,27.5 26.5,28.5 26.5,29.5C 24.5,29.5 22.5,29.5 20.5,29.5C 20.5,30.5 20.5,31.5 20.5,32.5C 19.5,32.5 18.5,32.5 17.5,32.5C 17.5,33.5 17.5,34.5 17.5,35.5C 16.5,35.5 15.5,35.5 14.5,35.5C 14.5,36.5 14.5,37.5 14.5,38.5C 13.5,38.5 12.5,38.5 11.5,38.5C 11.5,39.5 11.5,40.5 11.5,41.5C 10.5,41.5 9.5,41.5 8.5,41.5C 8.5,42.5 8.5,43.5 8.5,44.5C 7.5,44.5 6.5,44.5 5.5,44.5C 5.5,46.5 5.5,48.5 5.5,50.5C 4.5,50.5 3.5,50.5 2.5,50.5C 2.5,52.5 2.5,54.5 2.5,56.5C 1.5,56.5 0.5,56.5 -0.5,56.5C -0.5,53.5 -0.5,50.5 -0.5,47.5C 0.5,47.5 1.5,47.5 2.5,47.5C 2.5,45.5 2.5,43.5 2.5,41.5C 3.5,41.5 4.5,41.5 5.5,41.5C 5.5,40.5 5.5,39.5 5.5,38.5C 6.5,38.5 7.5,38.5 8.5,38.5C 8.5,37.5 8.5,36.5 8.5,35.5C 9.5,35.5 10.5,35.5 11.5,35.5C 11.5,34.5 11.5,33.5 11.5,32.5C 12.5,32.5 13.5,32.5 14.5,32.5C 14.5,31.5 14.5,30.5 14.5,29.5C 15.5,29.5 16.5,29.5 17.5,29.5C 17.5,28.5 17.5,27.5 17.5,26.5C 19.5,26.5 21.5,26.5 23.5,26.5C 23.5,25.5 23.5,24.5 23.5,23.5C 25.5,23.5 27.5,23.5 29.5,23.5C 29.5,22.5 29.5,21.5 29.5,20.5C 30.5,20.5 31.5,20.5 32.5,20.5C 32.5,19.5 32.5,18.5 32.5,17.5C 35.5,17.5 38.5,17.5 41.5,17.5C 41.5,16.5 41.5,15.5 41.5,14.5C 45.5,14.5 49.5,14.5 53.5,14.5C 53.5,13.5 53.5,12.5 53.5,11.5C 68.5,11.5 83.5,11.5 98.5,11.5C 98.5,12.5 98.5,13.5 98.5,14.5C 103.5,14.5 108.5,14.5 113.5,14.5C 113.5,15.5 113.5,16.5 113.5,17.5C 116.5,17.5 119.5,17.5 122.5,17.5C 122.5,18.5 122.5,19.5 122.5,20.5C 124.5,20.5 126.5,20.5 128.5,20.5C 128.5,21.5 128.5,22.5 128.5,23.5C 130.5,23.5 132.5,23.5 134.5,23.5C 134.5,24.5 134.5,25.5 134.5,26.5C 135.5,26.5 136.5,26.5 137.5,26.5C 137.5,27.5 137.5,28.5 137.5,29.5C 138.5,29.5 139.5,29.5 140.5,29.5C 140.5,30.5 140.5,31.5 140.5,32.5C 141.5,32.5 142.5,32.5 143.5,32.5C 143.5,33.5 143.5,34.5 143.5,35.5C 144.5,35.5 145.5,35.5 146.5,35.5C 146.5,37.5 146.5,39.5 146.5,41.5C 147.5,41.5 148.5,41.5 149.5,41.5C 149.5,43.5 149.5,45.5 149.5,47.5C 150.5,47.5 151.5,47.5 152.5,47.5C 152.5,48.5 152.5,49.5 152.5,50.5C 154.5,50.5 156.5,50.5 158.5,50.5C 158.5,49.5 158.5,48.5 158.5,47.5C 160.5,47.5 162.5,47.5 164.5,47.5C 164.5,46.5 164.5,45.5 164.5,44.5C 166.5,44.5 168.5,44.5 170.5,44.5C 170.5,43.5 170.5,42.5 170.5,41.5C 179.5,41.5 188.5,41.5 197.5,41.5C 197.5,42.5 197.5,43.5 197.5,44.5C 200.5,44.5 203.5,44.5 206.5,44.5C 206.5,45.5 206.5,46.5 206.5,47.5C 207.5,47.5 208.5,47.5 209.5,47.5C 209.5,51.5 209.5,55.5 209.5,59.5C 208.5,59.5 207.5,59.5 206.5,59.5C 206.5,60.5 206.5,61.5 206.5,62.5C 205.5,62.5 204.5,62.5 203.5,62.5C 203.5,63.5 203.5,64.5 203.5,65.5C 202.5,65.5 201.5,65.5 200.5,65.5C 200.5,66.5 200.5,67.5 200.5,68.5C 199.5,68.5 198.5,68.5 197.5,68.5C 197.5,69.5 197.5,70.5 197.5,71.5C 196.5,71.5 195.5,71.5 194.5,71.5C 194.5,72.5 194.5,73.5 194.5,74.5C 193.5,74.5 192.5,74.5 191.5,74.5C 191.5,75.5 191.5,76.5 191.5,77.5C 190.5,77.5 189.5,77.5 188.5,77.5C 188.5,78.5 188.5,79.5 188.5,80.5C 187.5,80.5 186.5,80.5 185.5,80.5C 185.5,81.5 185.5,82.5 185.5,83.5C 184.5,83.5 183.5,83.5 182.5,83.5C 182.5,84.5 182.5,85.5 182.5,86.5C 181.5,86.5 180.5,86.5 179.5,86.5C 179.5,87.5 179.5,88.5 179.5,89.5C 178.5,89.5 177.5,89.5 176.5,89.5C 176.5,90.5 176.5,91.5 176.5,92.5C 175.5,92.5 174.5,92.5 173.5,92.5C 173.5,93.5 173.5,94.5 173.5,95.5C 172.5,95.5 171.5,95.5 170.5,95.5C 170.5,96.5 170.5,97.5 170.5,98.5C 169.5,98.5 168.5,98.5 167.5,98.5C 167.5,99.5 167.5,100.5 167.5,101.5C 166.5,101.5 165.5,101.5 164.5,101.5C 164.5,102.5 164.5,103.5 164.5,104.5C 163.5,104.5 162.5,104.5 161.5,104.5C 161.5,105.5 161.5,106.5 161.5,107.5C 178.5,107.5 195.5,107.5 212.5,107.5C 212.5,108.5 212.5,109.5 212.5,110.5C 213.5,110.5 214.5,110.5 215.5,110.5C 215.5,115.5 215.5,120.5 215.5,125.5C 214.5,125.5 213.5,125.5 212.5,125.5C 212.5,126.5 212.5,127.5 212.5,128.5C 211.5,128.5 210.5,128.5 209.5,128.5C 209.5,129.5 209.5,130.5 209.5,131.5C 208.5,131.5 207.5,131.5 206.5,131.5C 206.5,132.5 206.5,133.5 206.5,134.5C 205.5,134.5 204.5,134.5 203.5,134.5C 203.5,135.5 203.5,136.5 203.5,137.5C 201.5,137.5 199.5,137.5 197.5,137.5C 197.5,138.5 197.5,139.5 197.5,140.5C 194.5,140.5 191.5,140.5 188.5,140.5C 188.5,141.5 188.5,142.5 188.5,143.5C 185.5,143.5 182.5,143.5 179.5,143.5C 179.5,144.5 179.5,145.5 179.5,146.5C 176.5,146.5 173.5,146.5 170.5,146.5C 170.5,147.5 170.5,148.5 170.5,149.5C 166.5,149.5 162.5,149.5 158.5,149.5C 158.5,151.5 158.5,153.5 158.5,155.5C 157.5,155.5 156.5,155.5 155.5,155.5C 155.5,159.5 155.5,163.5 155.5,167.5C 156.5,167.5 157.5,167.5 158.5,167.5C 158.5,170.5 158.5,173.5 158.5,176.5 Z M 98.5,20.5 C 97.5,20.5 96.5,20.5 95.5,20.5C 95.5,21.5 95.5,22.5 95.5,23.5C 94.5,23.5 93.5,23.5 92.5,23.5C 92.5,24.5 92.5,25.5 92.5,26.5C 91.5,26.5 90.5,26.5 89.5,26.5C 89.5,27.5 89.5,28.5 89.5,29.5C 88.5,29.5 87.5,29.5 86.5,29.5C 86.5,28.5 86.5,27.5 86.5,26.5C 83.5,26.5 80.5,26.5 77.5,26.5C 77.5,25.5 77.5,24.5 77.5,23.5C 74.5,23.5 71.5,23.5 68.5,23.5C 68.5,22.5 68.5,21.5 68.5,20.5C 60.5,20.5 52.5,20.5 44.5,20.5C 44.5,19.5 44.5,18.5 44.5,17.5C 48.5,17.5 52.5,17.5 56.5,17.5C 56.5,16.5 56.5,15.5 56.5,14.5C 69.5,14.5 82.5,14.5 95.5,14.5C 95.5,15.5 95.5,16.5 95.5,17.5C 96.5,17.5 97.5,17.5 98.5,17.5C 98.5,18.5 98.5,19.5 98.5,20.5 Z M 104.5,20.5 C 103.5,20.5 102.5,20.5 101.5,20.5C 101.5,19.5 101.5,18.5 101.5,17.5C 102.5,17.5 103.5,17.5 104.5,17.5C 104.5,18.5 104.5,19.5 104.5,20.5 Z M 98.5,20.5 C 99.5,20.5 100.5,20.5 101.5,20.5C 101.5,21.5 101.5,22.5 101.5,23.5C 100.5,23.5 99.5,23.5 98.5,23.5C 98.5,22.5 98.5,21.5 98.5,20.5 Z M 95.5,23.5 C 96.5,23.5 97.5,23.5 98.5,23.5C 98.5,24.5 98.5,25.5 98.5,26.5C 97.5,26.5 96.5,26.5 95.5,26.5C 95.5,25.5 95.5,24.5 95.5,23.5 Z M 92.5,26.5 C 93.5,26.5 94.5,26.5 95.5,26.5C 95.5,27.5 95.5,28.5 95.5,29.5C 94.5,29.5 93.5,29.5 92.5,29.5C 92.5,28.5 92.5,27.5 92.5,26.5 Z M 86.5,29.5 C 86.5,30.5 86.5,31.5 86.5,32.5C 85.5,32.5 84.5,32.5 83.5,32.5C 83.5,31.5 83.5,30.5 83.5,29.5C 84.5,29.5 85.5,29.5 86.5,29.5 Z M 80.5,32.5 C 81.5,32.5 82.5,32.5 83.5,32.5C 83.5,33.5 83.5,34.5 83.5,35.5C 82.5,35.5 81.5,35.5 80.5,35.5C 80.5,34.5 80.5,33.5 80.5,32.5 Z M 86.5,32.5 C 87.5,32.5 88.5,32.5 89.5,32.5C 89.5,33.5 89.5,34.5 89.5,35.5C 88.5,35.5 87.5,35.5 86.5,35.5C 86.5,34.5 86.5,33.5 86.5,32.5 Z M 77.5,35.5 C 78.5,35.5 79.5,35.5 80.5,35.5C 80.5,36.5 80.5,37.5 80.5,38.5C 79.5,38.5 78.5,38.5 77.5,38.5C 77.5,37.5 77.5,36.5 77.5,35.5 Z M 83.5,35.5 C 84.5,35.5 85.5,35.5 86.5,35.5C 86.5,36.5 86.5,37.5 86.5,38.5C 85.5,38.5 84.5,38.5 83.5,38.5C 83.5,37.5 83.5,36.5 83.5,35.5 Z M 74.5,38.5 C 75.5,38.5 76.5,38.5 77.5,38.5C 77.5,39.5 77.5,40.5 77.5,41.5C 76.5,41.5 75.5,41.5 74.5,41.5C 74.5,40.5 74.5,39.5 74.5,38.5 Z M 80.5,38.5 C 81.5,38.5 82.5,38.5 83.5,38.5C 83.5,39.5 83.5,40.5 83.5,41.5C 82.5,41.5 81.5,41.5 80.5,41.5C 80.5,40.5 80.5,39.5 80.5,38.5 Z M 77.5,41.5 C 78.5,41.5 79.5,41.5 80.5,41.5C 80.5,42.5 80.5,43.5 80.5,44.5C 79.5,44.5 78.5,44.5 77.5,44.5C 77.5,43.5 77.5,42.5 77.5,41.5 Z M 74.5,44.5 C 75.5,44.5 76.5,44.5 77.5,44.5C 77.5,45.5 77.5,46.5 77.5,47.5C 76.5,47.5 75.5,47.5 74.5,47.5C 74.5,46.5 74.5,45.5 74.5,44.5 Z M 71.5,47.5 C 72.5,47.5 73.5,47.5 74.5,47.5C 74.5,48.5 74.5,49.5 74.5,50.5C 73.5,50.5 72.5,50.5 71.5,50.5C 71.5,49.5 71.5,48.5 71.5,47.5 Z M 77.5,47.5 C 78.5,47.5 79.5,47.5 80.5,47.5C 80.5,48.5 80.5,49.5 80.5,50.5C 79.5,50.5 78.5,50.5 77.5,50.5C 77.5,49.5 77.5,48.5 77.5,47.5 Z M 74.5,50.5 C 75.5,50.5 76.5,50.5 77.5,50.5C 77.5,51.5 77.5,52.5 77.5,53.5C 76.5,53.5 75.5,53.5 74.5,53.5C 74.5,52.5 74.5,51.5 74.5,50.5 Z M 170.5,113.5 C 170.5,114.5 170.5,115.5 170.5,116.5C 172.5,116.5 174.5,116.5 176.5,116.5C 176.5,117.5 176.5,118.5 176.5,119.5C 177.5,119.5 178.5,119.5 179.5,119.5C 179.5,120.5 179.5,121.5 179.5,122.5C 174.5,122.5 169.5,122.5 164.5,122.5C 164.5,123.5 164.5,124.5 164.5,125.5C 152.5,125.5 140.5,125.5 128.5,125.5C 128.5,123.5 128.5,121.5 128.5,119.5C 129.5,119.5 130.5,119.5 131.5,119.5C 131.5,118.5 131.5,117.5 131.5,116.5C 132.5,116.5 133.5,116.5 134.5,116.5C 134.5,115.5 134.5,114.5 134.5,113.5C 135.5,113.5 136.5,113.5 137.5,113.5C 137.5,112.5 137.5,111.5 137.5,110.5C 144.5,110.5 151.5,110.5 158.5,110.5C 158.5,111.5 158.5,112.5 158.5,113.5C 162.5,113.5 166.5,113.5 170.5,113.5 Z M 206.5,113.5 C 204.5,113.5 202.5,113.5 200.5,113.5C 200.5,114.5 200.5,115.5 200.5,116.5C 197.5,116.5 194.5,116.5 191.5,116.5C 191.5,117.5 191.5,118.5 191.5,119.5C 188.5,119.5 185.5,119.5 182.5,119.5C 182.5,118.5 182.5,117.5 182.5,116.5C 180.5,116.5 178.5,116.5 176.5,116.5C 176.5,115.5 176.5,114.5 176.5,113.5C 174.5,113.5 172.5,113.5 170.5,113.5C 170.5,112.5 170.5,111.5 170.5,110.5C 182.5,110.5 194.5,110.5 206.5,110.5C 206.5,111.5 206.5,112.5 206.5,113.5 Z M 128.5,164.5 C 127.5,164.5 126.5,164.5 125.5,164.5C 125.5,163.5 125.5,162.5 125.5,161.5C 126.5,161.5 127.5,161.5 128.5,161.5C 128.5,162.5 128.5,163.5 128.5,164.5 Z M 137.5,167.5 C 136.5,167.5 135.5,167.5 134.5,167.5C 134.5,166.5 134.5,165.5 134.5,164.5C 135.5,164.5 136.5,164.5 137.5,164.5C 137.5,165.5 137.5,166.5 137.5,167.5 Z M 146.5,170.5 C 145.5,170.5 144.5,170.5 143.5,170.5C 143.5,169.5 143.5,168.5 143.5,167.5C 144.5,167.5 145.5,167.5 146.5,167.5C 146.5,168.5 146.5,169.5 146.5,170.5 Z"/></g>
<g><path style="opacity:1" fill="#fe8200" d="M 212.5,14.5 C 215.5,14.5 218.5,14.5 221.5,14.5C 221.5,15.5 221.5,16.5 221.5,17.5C 223.5,17.5 225.5,17.5 227.5,17.5C 227.5,18.5 227.5,19.5 227.5,20.5C 228.5,20.5 229.5,20.5 230.5,20.5C 230.5,21.5 230.5,22.5 230.5,23.5C 231.5,23.5 232.5,23.5 233.5,23.5C 233.5,24.5 233.5,25.5 233.5,26.5C 234.5,26.5 235.5,26.5 236.5,26.5C 236.5,27.5 236.5,28.5 236.5,29.5C 237.5,29.5 238.5,29.5 239.5,29.5C 239.5,31.5 239.5,33.5 239.5,35.5C 240.5,35.5 241.5,35.5 242.5,35.5C 242.5,38.5 242.5,41.5 242.5,44.5C 240.5,44.5 238.5,44.5 236.5,44.5C 236.5,42.5 236.5,40.5 236.5,38.5C 235.5,38.5 234.5,38.5 233.5,38.5C 233.5,36.5 233.5,34.5 233.5,32.5C 232.5,32.5 231.5,32.5 230.5,32.5C 230.5,31.5 230.5,30.5 230.5,29.5C 229.5,29.5 228.5,29.5 227.5,29.5C 227.5,28.5 227.5,27.5 227.5,26.5C 226.5,26.5 225.5,26.5 224.5,26.5C 224.5,25.5 224.5,24.5 224.5,23.5C 222.5,23.5 220.5,23.5 218.5,23.5C 218.5,22.5 218.5,21.5 218.5,20.5C 216.5,20.5 214.5,20.5 212.5,20.5C 212.5,18.5 212.5,16.5 212.5,14.5 Z"/></g>
<g><path style="opacity:1" fill="#fe8200" d="M 98.5,20.5 C 98.5,21.5 98.5,22.5 98.5,23.5C 97.5,23.5 96.5,23.5 95.5,23.5C 95.5,22.5 95.5,21.5 95.5,20.5C 96.5,20.5 97.5,20.5 98.5,20.5 Z"/></g>
<g><path style="opacity:1" fill="#fe8200" d="M 101.5,20.5 C 102.5,20.5 103.5,20.5 104.5,20.5C 104.5,21.5 104.5,22.5 104.5,23.5C 103.5,23.5 102.5,23.5 101.5,23.5C 101.5,22.5 101.5,21.5 101.5,20.5 Z"/></g>
<g><path style="opacity:1" fill="#fe8200" d="M 68.5,23.5 C 71.5,23.5 74.5,23.5 77.5,23.5C 77.5,24.5 77.5,25.5 77.5,26.5C 74.5,26.5 71.5,26.5 68.5,26.5C 68.5,25.5 68.5,24.5 68.5,23.5 Z"/></g>
<g><path style="opacity:1" fill="#fe8200" d="M 95.5,23.5 C 95.5,24.5 95.5,25.5 95.5,26.5C 94.5,26.5 93.5,26.5 92.5,26.5C 92.5,25.5 92.5,24.5 92.5,23.5C 93.5,23.5 94.5,23.5 95.5,23.5 Z"/></g>
<g><path style="opacity:1" fill="#fe8200" d="M 98.5,23.5 C 99.5,23.5 100.5,23.5 101.5,23.5C 101.5,24.5 101.5,25.5 101.5,26.5C 100.5,26.5 99.5,26.5 98.5,26.5C 98.5,25.5 98.5,24.5 98.5,23.5 Z"/></g>
<g><path style="opacity:1" fill="#fe8200" d="M 77.5,26.5 C 80.5,26.5 83.5,26.5 86.5,26.5C 86.5,27.5 86.5,28.5 86.5,29.5C 85.5,29.5 84.5,29.5 83.5,29.5C 83.5,30.5 83.5,31.5 83.5,32.5C 82.5,32.5 81.5,32.5 80.5,32.5C 80.5,31.5 80.5,30.5 80.5,29.5C 79.5,29.5 78.5,29.5 77.5,29.5C 77.5,28.5 77.5,27.5 77.5,26.5 Z"/></g>
<g><path style="opacity:1" fill="#fe8200" d="M 92.5,26.5 C 92.5,27.5 92.5,28.5 92.5,29.5C 93.5,29.5 94.5,29.5 95.5,29.5C 95.5,30.5 95.5,31.5 95.5,32.5C 94.5,32.5 93.5,32.5 92.5,32.5C 92.5,33.5 92.5,34.5 92.5,35.5C 91.5,35.5 90.5,35.5 89.5,35.5C 89.5,34.5 89.5,33.5 89.5,32.5C 88.5,32.5 87.5,32.5 86.5,32.5C 86.5,31.5 86.5,30.5 86.5,29.5C 87.5,29.5 88.5,29.5 89.5,29.5C 89.5,28.5 89.5,27.5 89.5,26.5C 90.5,26.5 91.5,26.5 92.5,26.5 Z"/></g>
<g><path style="opacity:1" fill="#fe8200" d="M 95.5,26.5 C 96.5,26.5 97.5,26.5 98.5,26.5C 98.5,27.5 98.5,28.5 98.5,29.5C 97.5,29.5 96.5,29.5 95.5,29.5C 95.5,28.5 95.5,27.5 95.5,26.5 Z"/></g>
<g><path style="opacity:1" fill="#fe8200" d="M 119.5,26.5 C 119.5,27.5 119.5,28.5 119.5,29.5C 118.5,29.5 117.5,29.5 116.5,29.5C 116.5,28.5 116.5,27.5 116.5,26.5C 117.5,26.5 118.5,26.5 119.5,26.5 Z"/></g>
<g><path style="opacity:1" fill="#fe8200" d="M 116.5,29.5 C 116.5,30.5 116.5,31.5 116.5,32.5C 115.5,32.5 114.5,32.5 113.5,32.5C 113.5,31.5 113.5,30.5 113.5,29.5C 114.5,29.5 115.5,29.5 116.5,29.5 Z"/></g>
<g><path style="opacity:1" fill="#fe8200" d="M 212.5,29.5 C 215.5,29.5 218.5,29.5 221.5,29.5C 221.5,30.5 221.5,31.5 221.5,32.5C 222.5,32.5 223.5,32.5 224.5,32.5C 224.5,33.5 224.5,34.5 224.5,35.5C 225.5,35.5 226.5,35.5 227.5,35.5C 227.5,38.5 227.5,41.5 227.5,44.5C 225.5,44.5 223.5,44.5 221.5,44.5C 221.5,42.5 221.5,40.5 221.5,38.5C 220.5,38.5 219.5,38.5 218.5,38.5C 218.5,37.5 218.5,36.5 218.5,35.5C 216.5,35.5 214.5,35.5 212.5,35.5C 212.5,33.5 212.5,31.5 212.5,29.5 Z"/></g>
<g><path style="opacity:1" fill="#fe8200" d="M 80.5,32.5 C 80.5,33.5 80.5,34.5 80.5,35.5C 79.5,35.5 78.5,35.5 77.5,35.5C 77.5,34.5 77.5,33.5 77.5,32.5C 78.5,32.5 79.5,32.5 80.5,32.5 Z"/></g>
<g><path style="opacity:1" fill="#fe8200" d="M 83.5,32.5 C 84.5,32.5 85.5,32.5 86.5,32.5C 86.5,33.5 86.5,34.5 86.5,35.5C 85.5,35.5 84.5,35.5 83.5,35.5C 83.5,34.5 83.5,33.5 83.5,32.5 Z"/></g>
<g><path style="opacity:1" fill="#fe8200" d="M 113.5,32.5 C 113.5,33.5 113.5,34.5 113.5,35.5C 112.5,35.5 111.5,35.5 110.5,35.5C 110.5,34.5 110.5,33.5 110.5,32.5C 111.5,32.5 112.5,32.5 113.5,32.5 Z"/></g>
<g><path style="opacity:1" fill="#fe8200" d="M 128.5,35.5 C 127.5,35.5 126.5,35.5 125.5,35.5C 125.5,34.5 125.5,33.5 125.5,32.5C 126.5,32.5 127.5,32.5 128.5,32.5C 128.5,33.5 128.5,34.5 128.5,35.5 Z"/></g>
<g><path style="opacity:1" fill="#fe8200" d="M 77.5,35.5 C 77.5,36.5 77.5,37.5 77.5,38.5C 76.5,38.5 75.5,38.5 74.5,38.5C 74.5,37.5 74.5,36.5 74.5,35.5C 75.5,35.5 76.5,35.5 77.5,35.5 Z"/></g>
<g><path style="opacity:1" fill="#fe8200" d="M 80.5,35.5 C 81.5,35.5 82.5,35.5 83.5,35.5C 83.5,36.5 83.5,37.5 83.5,38.5C 82.5,38.5 81.5,38.5 80.5,38.5C 80.5,37.5 80.5,36.5 80.5,35.5 Z"/></g>
<g><path style="opacity:1" fill="#fe8200" d="M 86.5,35.5 C 87.5,35.5 88.5,35.5 89.5,35.5C 89.5,36.5 89.5,37.5 89.5,38.5C 88.5,38.5 87.5,38.5 86.5,38.5C 86.5,37.5 86.5,36.5 86.5,35.5 Z"/></g>
<g><path style="opacity:1" fill="#fe8200" d="M 110.5,35.5 C 110.5,36.5 110.5,37.5 110.5,38.5C 109.5,38.5 108.5,38.5 107.5,38.5C 107.5,37.5 107.5,36.5 107.5,35.5C 108.5,35.5 109.5,35.5 110.5,35.5 Z"/></g>
<g><path style="opacity:1" fill="#fe8200" d="M 128.5,35.5 C 129.5,35.5 130.5,35.5 131.5,35.5C 131.5,36.5 131.5,37.5 131.5,38.5C 131.5,37.5 131.5,36.5 131.5,35.5C 130.5,35.5 129.5,35.5 128.5,35.5 Z"/></g>
<g><path style="opacity:1" fill="#fe8200" d="M 74.5,38.5 C 74.5,39.5 74.5,40.5 74.5,41.5C 73.5,41.5 72.5,41.5 71.5,41.5C 71.5,40.5 71.5,39.5 71.5,38.5C 72.5,38.5 73.5,38.5 74.5,38.5 Z"/></g>
<g><path style="opacity:1" fill="#fe8200" d="M 77.5,38.5 C 78.5,38.5 79.5,38.5 80.5,38.5C 80.5,39.5 80.5,40.5 80.5,41.5C 79.5,41.5 78.5,41.5 77.5,41.5C 77.5,40.5 77.5,39.5 77.5,38.5 Z"/></g>
<g><path style="opacity:1" fill="#fe8200" d="M 83.5,38.5 C 84.5,38.5 85.5,38.5 86.5,38.5C 86.5,40.5 86.5,42.5 86.5,44.5C 85.5,44.5 84.5,44.5 83.5,44.5C 83.5,46.5 83.5,48.5 83.5,50.5C 82.5,50.5 81.5,50.5 80.5,50.5C 80.5,49.5 80.5,48.5 80.5,47.5C 79.5,47.5 78.5,47.5 77.5,47.5C 77.5,46.5 77.5,45.5 77.5,44.5C 78.5,44.5 79.5,44.5 80.5,44.5C 80.5,43.5 80.5,42.5 80.5,41.5C 81.5,41.5 82.5,41.5 83.5,41.5C 83.5,40.5 83.5,39.5 83.5,38.5 Z"/></g>
<g><path style="opacity:1" fill="#fe8200" d="M 107.5,38.5 C 107.5,39.5 107.5,40.5 107.5,41.5C 106.5,41.5 105.5,41.5 104.5,41.5C 104.5,40.5 104.5,39.5 104.5,38.5C 105.5,38.5 106.5,38.5 107.5,38.5 Z"/></g>
<g><path style="opacity:1" fill="#fe8200" d="M 119.5,41.5 C 118.5,41.5 117.5,41.5 116.5,41.5C 116.5,40.5 116.5,39.5 116.5,38.5C 117.5,38.5 118.5,38.5 119.5,38.5C 119.5,39.5 119.5,40.5 119.5,41.5 Z"/></g>
<g><path style="opacity:1" fill="#fe8200" d="M 131.5,38.5 C 132.5,38.5 133.5,38.5 134.5,38.5C 134.5,39.5 134.5,40.5 134.5,41.5C 134.5,40.5 134.5,39.5 134.5,38.5C 133.5,38.5 132.5,38.5 131.5,38.5 Z"/></g>
<g><path style="opacity:1" fill="#fe8200" d="M 74.5,41.5 C 75.5,41.5 76.5,41.5 77.5,41.5C 77.5,42.5 77.5,43.5 77.5,44.5C 76.5,44.5 75.5,44.5 74.5,44.5C 74.5,43.5 74.5,42.5 74.5,41.5 Z"/></g>
<g><path style="opacity:1" fill="#fe8200" d="M 104.5,41.5 C 104.5,42.5 104.5,43.5 104.5,44.5C 103.5,44.5 102.5,44.5 101.5,44.5C 101.5,43.5 101.5,42.5 101.5,41.5C 102.5,41.5 103.5,41.5 104.5,41.5 Z"/></g>
<g><path style="opacity:1" fill="#fe8200" d="M 119.5,41.5 C 120.5,41.5 121.5,41.5 122.5,41.5C 122.5,42.5 122.5,43.5 122.5,44.5C 122.5,43.5 122.5,42.5 122.5,41.5C 121.5,41.5 120.5,41.5 119.5,41.5 Z"/></g>
<g><path style="opacity:1" fill="#fe8200" d="M 134.5,41.5 C 135.5,41.5 136.5,41.5 137.5,41.5C 137.5,42.5 137.5,43.5 137.5,44.5C 136.5,44.5 135.5,44.5 134.5,44.5C 134.5,43.5 134.5,42.5 134.5,41.5 Z"/></g>
<g><path style="opacity:1" fill="#fe8200" d="M 74.5,44.5 C 74.5,45.5 74.5,46.5 74.5,47.5C 73.5,47.5 72.5,47.5 71.5,47.5C 71.5,46.5 71.5,45.5 71.5,44.5C 72.5,44.5 73.5,44.5 74.5,44.5 Z"/></g>
<g><path style="opacity:1" fill="#fe8200" d="M 101.5,44.5 C 101.5,46.5 101.5,48.5 101.5,50.5C 100.5,50.5 99.5,50.5 98.5,50.5C 98.5,48.5 98.5,46.5 98.5,44.5C 99.5,44.5 100.5,44.5 101.5,44.5 Z"/></g>
<g><path style="opacity:1" fill="#fe8200" d="M 122.5,44.5 C 123.5,44.5 124.5,44.5 125.5,44.5C 125.5,45.5 125.5,46.5 125.5,47.5C 125.5,46.5 125.5,45.5 125.5,44.5C 124.5,44.5 123.5,44.5 122.5,44.5 Z"/></g>
<g><path style="opacity:1" fill="#fe8200" d="M 71.5,47.5 C 71.5,48.5 71.5,49.5 71.5,50.5C 72.5,50.5 73.5,50.5 74.5,50.5C 74.5,51.5 74.5,52.5 74.5,53.5C 75.5,53.5 76.5,53.5 77.5,53.5C 77.5,52.5 77.5,51.5 77.5,50.5C 78.5,50.5 79.5,50.5 80.5,50.5C 80.5,52.5 80.5,54.5 80.5,56.5C 79.5,56.5 78.5,56.5 77.5,56.5C 77.5,57.5 77.5,58.5 77.5,59.5C 76.5,59.5 75.5,59.5 74.5,59.5C 74.5,58.5 74.5,57.5 74.5,56.5C 72.5,56.5 70.5,56.5 68.5,56.5C 68.5,55.5 68.5,54.5 68.5,53.5C 59.5,53.5 50.5,53.5 41.5,53.5C 41.5,52.5 41.5,51.5 41.5,50.5C 50.5,50.5 59.5,50.5 68.5,50.5C 68.5,49.5 68.5,48.5 68.5,47.5C 69.5,47.5 70.5,47.5 71.5,47.5 Z M 74.5,50.5 C 75.5,50.5 76.5,50.5 77.5,50.5C 77.5,51.5 77.5,52.5 77.5,53.5C 76.5,53.5 75.5,53.5 74.5,53.5C 74.5,52.5 74.5,51.5 74.5,50.5 Z"/></g>
<g><path style="opacity:1" fill="#fe8200" d="M 74.5,47.5 C 75.5,47.5 76.5,47.5 77.5,47.5C 77.5,48.5 77.5,49.5 77.5,50.5C 76.5,50.5 75.5,50.5 74.5,50.5C 74.5,49.5 74.5,48.5 74.5,47.5 Z"/></g>
<g><path style="opacity:1" fill="#fe8200" d="M 113.5,50.5 C 112.5,50.5 111.5,50.5 110.5,50.5C 110.5,49.5 110.5,48.5 110.5,47.5C 111.5,47.5 112.5,47.5 113.5,47.5C 113.5,48.5 113.5,49.5 113.5,50.5 Z"/></g>
<g><path style="opacity:1" fill="#fe8200" d="M 125.5,47.5 C 126.5,47.5 127.5,47.5 128.5,47.5C 128.5,48.5 128.5,49.5 128.5,50.5C 127.5,50.5 126.5,50.5 125.5,50.5C 125.5,49.5 125.5,48.5 125.5,47.5 Z"/></g>
<g><path style="opacity:1" fill="#fe8200" d="M 98.5,50.5 C 98.5,53.5 98.5,56.5 98.5,59.5C 97.5,59.5 96.5,59.5 95.5,59.5C 95.5,56.5 95.5,53.5 95.5,50.5C 96.5,50.5 97.5,50.5 98.5,50.5 Z"/></g>
<g><path style="opacity:1" fill="#fe8200" d="M 113.5,50.5 C 114.5,50.5 115.5,50.5 116.5,50.5C 116.5,51.5 116.5,52.5 116.5,53.5C 116.5,52.5 116.5,51.5 116.5,50.5C 115.5,50.5 114.5,50.5 113.5,50.5 Z"/></g>
<g><path style="opacity:1" fill="#fe8200" d="M 140.5,50.5 C 140.5,51.5 140.5,52.5 140.5,53.5C 139.5,53.5 138.5,53.5 137.5,53.5C 137.5,52.5 137.5,51.5 137.5,50.5C 138.5,50.5 139.5,50.5 140.5,50.5 Z"/></g>
<g><path style="opacity:1" fill="#fe8200" d="M 41.5,53.5 C 41.5,54.5 41.5,55.5 41.5,56.5C 39.5,56.5 37.5,56.5 35.5,56.5C 35.5,55.5 35.5,54.5 35.5,53.5C 37.5,53.5 39.5,53.5 41.5,53.5 Z"/></g>
<g><path style="opacity:1" fill="#fe8200" d="M 116.5,53.5 C 117.5,53.5 118.5,53.5 119.5,53.5C 119.5,54.5 119.5,55.5 119.5,56.5C 118.5,56.5 117.5,56.5 116.5,56.5C 116.5,55.5 116.5,54.5 116.5,53.5 Z"/></g>
<g><path style="opacity:1" fill="#fe8200" d="M 137.5,53.5 C 137.5,54.5 137.5,55.5 137.5,56.5C 135.5,56.5 133.5,56.5 131.5,56.5C 131.5,55.5 131.5,54.5 131.5,53.5C 133.5,53.5 135.5,53.5 137.5,53.5 Z"/></g>
<g><path style="opacity:1" fill="#fe8200" d="M 35.5,56.5 C 35.5,57.5 35.5,58.5 35.5,59.5C 34.5,59.5 33.5,59.5 32.5,59.5C 32.5,58.5 32.5,57.5 32.5,56.5C 33.5,56.5 34.5,56.5 35.5,56.5 Z"/></g>
<g><path style="opacity:1" fill="#fe8200" d="M 65.5,59.5 C 58.5,59.5 51.5,59.5 44.5,59.5C 44.5,58.5 44.5,57.5 44.5,56.5C 51.5,56.5 58.5,56.5 65.5,56.5C 65.5,57.5 65.5,58.5 65.5,59.5 Z"/></g>
<g><path style="opacity:1" fill="#fe8200" d="M 131.5,56.5 C 131.5,57.5 131.5,58.5 131.5,59.5C 130.5,59.5 129.5,59.5 128.5,59.5C 128.5,58.5 128.5,57.5 128.5,56.5C 129.5,56.5 130.5,56.5 131.5,56.5 Z"/></g>
<g><path style="opacity:1" fill="#fe8200" d="M 149.5,56.5 C 149.5,57.5 149.5,58.5 149.5,59.5C 148.5,59.5 147.5,59.5 146.5,59.5C 146.5,58.5 146.5,57.5 146.5,56.5C 147.5,56.5 148.5,56.5 149.5,56.5 Z"/></g>
<g><path style="opacity:1" fill="#fe8200" d="M 32.5,59.5 C 32.5,60.5 32.5,61.5 32.5,62.5C 31.5,62.5 30.5,62.5 29.5,62.5C 29.5,61.5 29.5,60.5 29.5,59.5C 30.5,59.5 31.5,59.5 32.5,59.5 Z"/></g>
<g><path style="opacity:1" fill="#fe8200" d="M 44.5,59.5 C 44.5,60.5 44.5,61.5 44.5,62.5C 42.5,62.5 40.5,62.5 38.5,62.5C 38.5,61.5 38.5,60.5 38.5,59.5C 40.5,59.5 42.5,59.5 44.5,59.5 Z"/></g>
<g><path style="opacity:1" fill="#fe8200" d="M 65.5,59.5 C 67.5,59.5 69.5,59.5 71.5,59.5C 71.5,60.5 71.5,61.5 71.5,62.5C 69.5,62.5 67.5,62.5 65.5,62.5C 65.5,61.5 65.5,60.5 65.5,59.5 Z"/></g>
<g><path style="opacity:1" fill="#fe8200" d="M 77.5,59.5 C 78.5,59.5 79.5,59.5 80.5,59.5C 80.5,60.5 80.5,61.5 80.5,62.5C 80.5,61.5 80.5,60.5 80.5,59.5C 79.5,59.5 78.5,59.5 77.5,59.5 Z"/></g>
<g><path style="opacity:1" fill="#fe8200" d="M 98.5,59.5 C 99.5,59.5 100.5,59.5 101.5,59.5C 101.5,60.5 101.5,61.5 101.5,62.5C 101.5,61.5 101.5,60.5 101.5,59.5C 100.5,59.5 99.5,59.5 98.5,59.5 Z"/></g>
<g><path style="opacity:1" fill="#fe8200" d="M 128.5,59.5 C 128.5,60.5 128.5,61.5 128.5,62.5C 126.5,62.5 124.5,62.5 122.5,62.5C 122.5,61.5 122.5,60.5 122.5,59.5C 124.5,59.5 126.5,59.5 128.5,59.5 Z"/></g>
<g><path style="opacity:1" fill="#fe8200" d="M 146.5,59.5 C 146.5,60.5 146.5,61.5 146.5,62.5C 144.5,62.5 142.5,62.5 140.5,62.5C 140.5,61.5 140.5,60.5 140.5,59.5C 142.5,59.5 144.5,59.5 146.5,59.5 Z"/></g>
<g><path style="opacity:1" fill="#fe8200" d="M 29.5,62.5 C 29.5,63.5 29.5,64.5 29.5,65.5C 28.5,65.5 27.5,65.5 26.5,65.5C 26.5,64.5 26.5,63.5 26.5,62.5C 27.5,62.5 28.5,62.5 29.5,62.5 Z"/></g>
<g><path style="opacity:1" fill="#fe8200" d="M 38.5,62.5 C 38.5,63.5 38.5,64.5 38.5,65.5C 37.5,65.5 36.5,65.5 35.5,65.5C 35.5,64.5 35.5,63.5 35.5,62.5C 36.5,62.5 37.5,62.5 38.5,62.5 Z"/></g>
<g><path style="opacity:1" fill="#fe8200" d="M 71.5,62.5 C 72.5,62.5 73.5,62.5 74.5,62.5C 74.5,63.5 74.5,64.5 74.5,65.5C 74.5,64.5 74.5,63.5 74.5,62.5C 73.5,62.5 72.5,62.5 71.5,62.5 Z"/></g>
<g><path style="opacity:1" fill="#fe8200" d="M 80.5,62.5 C 81.5,62.5 82.5,62.5 83.5,62.5C 83.5,63.5 83.5,64.5 83.5,65.5C 83.5,64.5 83.5,63.5 83.5,62.5C 82.5,62.5 81.5,62.5 80.5,62.5 Z"/></g>
<g><path style="opacity:1" fill="#fe8200" d="M 101.5,62.5 C 102.5,62.5 103.5,62.5 104.5,62.5C 104.5,63.5 104.5,64.5 104.5,65.5C 104.5,64.5 104.5,63.5 104.5,62.5C 103.5,62.5 102.5,62.5 101.5,62.5 Z"/></g>
<g><path style="opacity:1" fill="#fe8200" d="M 122.5,62.5 C 122.5,63.5 122.5,64.5 122.5,65.5C 120.5,65.5 118.5,65.5 116.5,65.5C 116.5,64.5 116.5,63.5 116.5,62.5C 118.5,62.5 120.5,62.5 122.5,62.5 Z"/></g>
<g><path style="opacity:1" fill="#fe8200" d="M 140.5,62.5 C 140.5,63.5 140.5,64.5 140.5,65.5C 139.5,65.5 138.5,65.5 137.5,65.5C 137.5,64.5 137.5,63.5 137.5,62.5C 138.5,62.5 139.5,62.5 140.5,62.5 Z"/></g>
<g><path style="opacity:1" fill="#fe8200" d="M 26.5,65.5 C 26.5,67.5 26.5,69.5 26.5,71.5C 25.5,71.5 24.5,71.5 23.5,71.5C 23.5,69.5 23.5,67.5 23.5,65.5C 24.5,65.5 25.5,65.5 26.5,65.5 Z"/></g>
<g><path style="opacity:1" fill="#fe8200" d="M 35.5,65.5 C 35.5,66.5 35.5,67.5 35.5,68.5C 34.5,68.5 33.5,68.5 32.5,68.5C 32.5,67.5 32.5,66.5 32.5,65.5C 33.5,65.5 34.5,65.5 35.5,65.5 Z"/></g>
<g><path style="opacity:1" fill="#fe8200" d="M 77.5,95.5 C 71.5,95.5 65.5,95.5 59.5,95.5C 59.5,96.5 59.5,97.5 59.5,98.5C 56.5,98.5 53.5,98.5 50.5,98.5C 50.5,99.5 50.5,100.5 50.5,101.5C 48.5,101.5 46.5,101.5 44.5,101.5C 44.5,102.5 44.5,103.5 44.5,104.5C 43.5,104.5 42.5,104.5 41.5,104.5C 41.5,102.5 41.5,100.5 41.5,98.5C 40.5,98.5 39.5,98.5 38.5,98.5C 38.5,96.5 38.5,94.5 38.5,92.5C 37.5,92.5 36.5,92.5 35.5,92.5C 35.5,87.5 35.5,82.5 35.5,77.5C 36.5,77.5 37.5,77.5 38.5,77.5C 38.5,75.5 38.5,73.5 38.5,71.5C 39.5,71.5 40.5,71.5 41.5,71.5C 41.5,70.5 41.5,69.5 41.5,68.5C 43.5,68.5 45.5,68.5 47.5,68.5C 47.5,67.5 47.5,66.5 47.5,65.5C 52.5,65.5 57.5,65.5 62.5,65.5C 62.5,66.5 62.5,67.5 62.5,68.5C 64.5,68.5 66.5,68.5 68.5,68.5C 68.5,69.5 68.5,70.5 68.5,71.5C 69.5,71.5 70.5,71.5 71.5,71.5C 71.5,73.5 71.5,75.5 71.5,77.5C 72.5,77.5 73.5,77.5 74.5,77.5C 74.5,82.5 74.5,87.5 74.5,92.5C 75.5,92.5 76.5,92.5 77.5,92.5C 77.5,93.5 77.5,94.5 77.5,95.5 Z M 47.5,77.5 C 49.5,77.5 51.5,77.5 53.5,77.5C 53.5,79.5 53.5,81.5 53.5,83.5C 51.5,83.5 49.5,83.5 47.5,83.5C 47.5,81.5 47.5,79.5 47.5,77.5 Z"/></g>
<g><path style="opacity:1" fill="#fe8200" d="M 74.5,65.5 C 75.5,65.5 76.5,65.5 77.5,65.5C 77.5,66.5 77.5,67.5 77.5,68.5C 77.5,67.5 77.5,66.5 77.5,65.5C 76.5,65.5 75.5,65.5 74.5,65.5 Z"/></g>
<g><path style="opacity:1" fill="#fe8200" d="M 83.5,65.5 C 84.5,65.5 85.5,65.5 86.5,65.5C 86.5,67.5 86.5,69.5 86.5,71.5C 85.5,71.5 84.5,71.5 83.5,71.5C 83.5,69.5 83.5,67.5 83.5,65.5 Z"/></g>
<g><path style="opacity:1" fill="#fe8200" d="M 104.5,65.5 C 108.5,65.5 112.5,65.5 116.5,65.5C 116.5,66.5 116.5,67.5 116.5,68.5C 112.5,68.5 108.5,68.5 104.5,68.5C 104.5,67.5 104.5,66.5 104.5,65.5 Z"/></g>
<g><path style="opacity:1" fill="#fe8200" d="M 137.5,65.5 C 137.5,66.5 137.5,67.5 137.5,68.5C 135.5,68.5 133.5,68.5 131.5,68.5C 131.5,67.5 131.5,66.5 131.5,65.5C 133.5,65.5 135.5,65.5 137.5,65.5 Z"/></g>
<g><path style="opacity:1" fill="#fe8200" d="M 32.5,68.5 C 32.5,70.5 32.5,72.5 32.5,74.5C 31.5,74.5 30.5,74.5 29.5,74.5C 29.5,72.5 29.5,70.5 29.5,68.5C 30.5,68.5 31.5,68.5 32.5,68.5 Z"/></g>
<g><path style="opacity:1" fill="#fe8200" d="M 77.5,68.5 C 78.5,68.5 79.5,68.5 80.5,68.5C 80.5,70.5 80.5,72.5 80.5,74.5C 79.5,74.5 78.5,74.5 77.5,74.5C 77.5,72.5 77.5,70.5 77.5,68.5 Z"/></g>
<g><path style="opacity:1" fill="#fe8200" d="M 131.5,68.5 C 131.5,69.5 131.5,70.5 131.5,71.5C 130.5,71.5 129.5,71.5 128.5,71.5C 128.5,70.5 128.5,69.5 128.5,68.5C 129.5,68.5 130.5,68.5 131.5,68.5 Z"/></g>
<g><path style="opacity:1" fill="#fe8200" d="M 23.5,71.5 C 23.5,80.5 23.5,89.5 23.5,98.5C 22.5,98.5 21.5,98.5 20.5,98.5C 20.5,97.5 20.5,96.5 20.5,95.5C 19.5,95.5 18.5,95.5 17.5,95.5C 17.5,94.5 17.5,93.5 17.5,92.5C 18.5,92.5 19.5,92.5 20.5,92.5C 20.5,85.5 20.5,78.5 20.5,71.5C 21.5,71.5 22.5,71.5 23.5,71.5 Z"/></g>
<g><path style="opacity:1" fill="#fe8200" d="M 86.5,71.5 C 87.5,71.5 88.5,71.5 89.5,71.5C 89.5,77.5 89.5,83.5 89.5,89.5C 91.5,89.5 93.5,89.5 95.5,89.5C 95.5,90.5 95.5,91.5 95.5,92.5C 92.5,92.5 89.5,92.5 86.5,92.5C 86.5,85.5 86.5,78.5 86.5,71.5 Z"/></g>
<g><path style="opacity:1" fill="#fe8200" d="M 128.5,71.5 C 128.5,72.5 128.5,73.5 128.5,74.5C 126.5,74.5 124.5,74.5 122.5,74.5C 122.5,73.5 122.5,72.5 122.5,71.5C 124.5,71.5 126.5,71.5 128.5,71.5 Z"/></g>
<g><path style="opacity:1" fill="#fe8200" d="M 29.5,74.5 C 29.5,81.5 29.5,88.5 29.5,95.5C 28.5,95.5 27.5,95.5 26.5,95.5C 26.5,88.5 26.5,81.5 26.5,74.5C 27.5,74.5 28.5,74.5 29.5,74.5 Z"/></g>
<g><path style="opacity:1" fill="#fe8200" d="M 80.5,74.5 C 81.5,74.5 82.5,74.5 83.5,74.5C 83.5,82.5 83.5,90.5 83.5,98.5C 81.5,98.5 79.5,98.5 77.5,98.5C 77.5,97.5 77.5,96.5 77.5,95.5C 78.5,95.5 79.5,95.5 80.5,95.5C 80.5,88.5 80.5,81.5 80.5,74.5 Z"/></g>
<g><path style="opacity:1" fill="#fe8200" d="M 122.5,74.5 C 122.5,75.5 122.5,76.5 122.5,77.5C 121.5,77.5 120.5,77.5 119.5,77.5C 119.5,76.5 119.5,75.5 119.5,74.5C 120.5,74.5 121.5,74.5 122.5,74.5 Z"/></g>
<g><path style="opacity:1" fill="#fe8200" d="M 119.5,77.5 C 119.5,78.5 119.5,79.5 119.5,80.5C 117.5,80.5 115.5,80.5 113.5,80.5C 113.5,79.5 113.5,78.5 113.5,77.5C 115.5,77.5 117.5,77.5 119.5,77.5 Z"/></g>
<g><path style="opacity:1" fill="#fe8200" d="M 113.5,80.5 C 113.5,81.5 113.5,82.5 113.5,83.5C 111.5,83.5 109.5,83.5 107.5,83.5C 107.5,82.5 107.5,81.5 107.5,80.5C 109.5,80.5 111.5,80.5 113.5,80.5 Z"/></g>
<g><path style="opacity:1" fill="#fe8200" d="M 107.5,83.5 C 107.5,84.5 107.5,85.5 107.5,86.5C 105.5,86.5 103.5,86.5 101.5,86.5C 101.5,85.5 101.5,84.5 101.5,83.5C 103.5,83.5 105.5,83.5 107.5,83.5 Z"/></g>
<g><path style="opacity:1" fill="#fe8200" d="M 101.5,86.5 C 101.5,87.5 101.5,88.5 101.5,89.5C 99.5,89.5 97.5,89.5 95.5,89.5C 95.5,88.5 95.5,87.5 95.5,86.5C 97.5,86.5 99.5,86.5 101.5,86.5 Z"/></g>
<g><path style="opacity:1" fill="#fe8200" d="M 14.5,95.5 C 13.5,95.5 12.5,95.5 11.5,95.5C 11.5,94.5 11.5,93.5 11.5,92.5C 12.5,92.5 13.5,92.5 14.5,92.5C 14.5,93.5 14.5,94.5 14.5,95.5 Z"/></g>
<g><path style="opacity:1" fill="#fe8200" d="M 11.5,95.5 C 11.5,96.5 11.5,97.5 11.5,98.5C 10.5,98.5 9.5,98.5 8.5,98.5C 8.5,97.5 8.5,96.5 8.5,95.5C 9.5,95.5 10.5,95.5 11.5,95.5 Z"/></g>
<g><path style="opacity:1" fill="#fe8200" d="M 14.5,95.5 C 15.5,95.5 16.5,95.5 17.5,95.5C 17.5,96.5 17.5,97.5 17.5,98.5C 16.5,98.5 15.5,98.5 14.5,98.5C 14.5,97.5 14.5,96.5 14.5,95.5 Z"/></g>
<g><path style="opacity:1" fill="#fe8200" d="M 29.5,95.5 C 30.5,95.5 31.5,95.5 32.5,95.5C 32.5,97.5 32.5,99.5 32.5,101.5C 31.5,101.5 30.5,101.5 29.5,101.5C 29.5,99.5 29.5,97.5 29.5,95.5 Z"/></g>
<g><path style="opacity:1" fill="#fe8200" d="M 8.5,98.5 C 8.5,99.5 8.5,100.5 8.5,101.5C 7.5,101.5 6.5,101.5 5.5,101.5C 5.5,100.5 5.5,99.5 5.5,98.5C 6.5,98.5 7.5,98.5 8.5,98.5 Z"/></g>
<g><path style="opacity:1" fill="#fe8200" d="M 11.5,98.5 C 12.5,98.5 13.5,98.5 14.5,98.5C 14.5,99.5 14.5,100.5 14.5,101.5C 13.5,101.5 12.5,101.5 11.5,101.5C 11.5,100.5 11.5,99.5 11.5,98.5 Z"/></g>
<g><path style="opacity:1" fill="#fe8200" d="M 17.5,98.5 C 18.5,98.5 19.5,98.5 20.5,98.5C 20.5,99.5 20.5,100.5 20.5,101.5C 19.5,101.5 18.5,101.5 17.5,101.5C 17.5,100.5 17.5,99.5 17.5,98.5 Z"/></g>
<g><path style="opacity:1" fill="#fe8200" d="M 23.5,98.5 C 24.5,98.5 25.5,98.5 26.5,98.5C 26.5,100.5 26.5,102.5 26.5,104.5C 27.5,104.5 28.5,104.5 29.5,104.5C 29.5,105.5 29.5,106.5 29.5,107.5C 30.5,107.5 31.5,107.5 32.5,107.5C 32.5,108.5 32.5,109.5 32.5,110.5C 33.5,110.5 34.5,110.5 35.5,110.5C 35.5,108.5 35.5,106.5 35.5,104.5C 37.5,104.5 39.5,104.5 41.5,104.5C 41.5,106.5 41.5,108.5 41.5,110.5C 40.5,110.5 39.5,110.5 38.5,110.5C 38.5,113.5 38.5,116.5 38.5,119.5C 37.5,119.5 36.5,119.5 35.5,119.5C 35.5,118.5 35.5,117.5 35.5,116.5C 34.5,116.5 33.5,116.5 32.5,116.5C 32.5,115.5 32.5,114.5 32.5,113.5C 31.5,113.5 30.5,113.5 29.5,113.5C 29.5,112.5 29.5,111.5 29.5,110.5C 28.5,110.5 27.5,110.5 26.5,110.5C 26.5,109.5 26.5,108.5 26.5,107.5C 25.5,107.5 24.5,107.5 23.5,107.5C 23.5,106.5 23.5,105.5 23.5,104.5C 22.5,104.5 21.5,104.5 20.5,104.5C 20.5,103.5 20.5,102.5 20.5,101.5C 21.5,101.5 22.5,101.5 23.5,101.5C 23.5,100.5 23.5,99.5 23.5,98.5 Z"/></g>
<g><path style="opacity:1" fill="#fe8200" d="M 5.5,101.5 C 5.5,102.5 5.5,103.5 5.5,104.5C 4.5,104.5 3.5,104.5 2.5,104.5C 2.5,103.5 2.5,102.5 2.5,101.5C 3.5,101.5 4.5,101.5 5.5,101.5 Z"/></g>
<g><path style="opacity:1" fill="#fe8200" d="M 8.5,101.5 C 9.5,101.5 10.5,101.5 11.5,101.5C 11.5,102.5 11.5,103.5 11.5,104.5C 10.5,104.5 9.5,104.5 8.5,104.5C 8.5,103.5 8.5,102.5 8.5,101.5 Z"/></g>
<g><path style="opacity:1" fill="#fe8200" d="M 14.5,101.5 C 15.5,101.5 16.5,101.5 17.5,101.5C 17.5,102.5 17.5,103.5 17.5,104.5C 16.5,104.5 15.5,104.5 14.5,104.5C 14.5,103.5 14.5,102.5 14.5,101.5 Z"/></g>
<g><path style="opacity:1" fill="#fe8200" d="M 32.5,101.5 C 33.5,101.5 34.5,101.5 35.5,101.5C 35.5,102.5 35.5,103.5 35.5,104.5C 35.5,103.5 35.5,102.5 35.5,101.5C 34.5,101.5 33.5,101.5 32.5,101.5 Z"/></g>
<g><path style="opacity:1" fill="#fe8200" d="M 5.5,104.5 C 6.5,104.5 7.5,104.5 8.5,104.5C 8.5,105.5 8.5,106.5 8.5,107.5C 7.5,107.5 6.5,107.5 5.5,107.5C 5.5,106.5 5.5,105.5 5.5,104.5 Z"/></g>
<g><path style="opacity:1" fill="#fe8200" d="M 11.5,104.5 C 12.5,104.5 13.5,104.5 14.5,104.5C 14.5,105.5 14.5,106.5 14.5,107.5C 13.5,107.5 12.5,107.5 11.5,107.5C 11.5,106.5 11.5,105.5 11.5,104.5 Z"/></g>
<g><path style="opacity:1" fill="#fe8200" d="M 17.5,104.5 C 18.5,104.5 19.5,104.5 20.5,104.5C 20.5,105.5 20.5,106.5 20.5,107.5C 19.5,107.5 18.5,107.5 17.5,107.5C 17.5,106.5 17.5,105.5 17.5,104.5 Z"/></g>
<g><path style="opacity:1" fill="#fe8200" d="M 5.5,107.5 C 5.5,108.5 5.5,109.5 5.5,110.5C 4.5,110.5 3.5,110.5 2.5,110.5C 2.5,109.5 2.5,108.5 2.5,107.5C 3.5,107.5 4.5,107.5 5.5,107.5 Z"/></g>
<g><path style="opacity:1" fill="#fe8200" d="M 8.5,107.5 C 9.5,107.5 10.5,107.5 11.5,107.5C 11.5,108.5 11.5,109.5 11.5,110.5C 10.5,110.5 9.5,110.5 8.5,110.5C 8.5,109.5 8.5,108.5 8.5,107.5 Z"/></g>
<g><path style="opacity:1" fill="#fe8200" d="M 14.5,107.5 C 15.5,107.5 16.5,107.5 17.5,107.5C 17.5,108.5 17.5,109.5 17.5,110.5C 16.5,110.5 15.5,110.5 14.5,110.5C 14.5,109.5 14.5,108.5 14.5,107.5 Z"/></g>
<g><path style="opacity:1" fill="#fe8200" d="M 20.5,107.5 C 21.5,107.5 22.5,107.5 23.5,107.5C 23.5,108.5 23.5,109.5 23.5,110.5C 22.5,110.5 21.5,110.5 20.5,110.5C 20.5,109.5 20.5,108.5 20.5,107.5 Z"/></g>
<g><path style="opacity:1" fill="#fe8200" d="M 5.5,110.5 C 6.5,110.5 7.5,110.5 8.5,110.5C 8.5,111.5 8.5,112.5 8.5,113.5C 7.5,113.5 6.5,113.5 5.5,113.5C 5.5,112.5 5.5,111.5 5.5,110.5 Z"/></g>
<g><path style="opacity:1" fill="#fe8200" d="M 11.5,110.5 C 12.5,110.5 13.5,110.5 14.5,110.5C 14.5,111.5 14.5,112.5 14.5,113.5C 13.5,113.5 12.5,113.5 11.5,113.5C 11.5,112.5 11.5,111.5 11.5,110.5 Z"/></g>
<g><path style="opacity:1" fill="#fe8200" d="M 17.5,110.5 C 18.5,110.5 19.5,110.5 20.5,110.5C 20.5,111.5 20.5,112.5 20.5,113.5C 19.5,113.5 18.5,113.5 17.5,113.5C 17.5,112.5 17.5,111.5 17.5,110.5 Z"/></g>
<g><path style="opacity:1" fill="#fe8200" d="M 23.5,110.5 C 24.5,110.5 25.5,110.5 26.5,110.5C 26.5,111.5 26.5,112.5 26.5,113.5C 25.5,113.5 24.5,113.5 23.5,113.5C 23.5,112.5 23.5,111.5 23.5,110.5 Z"/></g>
<g><path style="opacity:1" fill="#fe8200" d="M 5.5,113.5 C 5.5,114.5 5.5,115.5 5.5,116.5C 4.5,116.5 3.5,116.5 2.5,116.5C 2.5,115.5 2.5,114.5 2.5,113.5C 3.5,113.5 4.5,113.5 5.5,113.5 Z"/></g>
<g><path style="opacity:1" fill="#fe8200" d="M 8.5,113.5 C 9.5,113.5 10.5,113.5 11.5,113.5C 11.5,114.5 11.5,115.5 11.5,116.5C 10.5,116.5 9.5,116.5 8.5,116.5C 8.5,115.5 8.5,114.5 8.5,113.5 Z"/></g>
<g><path style="opacity:1" fill="#fe8200" d="M 14.5,113.5 C 15.5,113.5 16.5,113.5 17.5,113.5C 17.5,114.5 17.5,115.5 17.5,116.5C 16.5,116.5 15.5,116.5 14.5,116.5C 14.5,115.5 14.5,114.5 14.5,113.5 Z"/></g>
<g><path style="opacity:1" fill="#fe8200" d="M 20.5,113.5 C 21.5,113.5 22.5,113.5 23.5,113.5C 23.5,114.5 23.5,115.5 23.5,116.5C 22.5,116.5 21.5,116.5 20.5,116.5C 20.5,115.5 20.5,114.5 20.5,113.5 Z"/></g>
<g><path style="opacity:1" fill="#fe8200" d="M 26.5,113.5 C 27.5,113.5 28.5,113.5 29.5,113.5C 29.5,114.5 29.5,115.5 29.5,116.5C 28.5,116.5 27.5,116.5 26.5,116.5C 26.5,115.5 26.5,114.5 26.5,113.5 Z"/></g>
<g><path style="opacity:1" fill="#fe8200" d="M 170.5,113.5 C 172.5,113.5 174.5,113.5 176.5,113.5C 176.5,114.5 176.5,115.5 176.5,116.5C 174.5,116.5 172.5,116.5 170.5,116.5C 170.5,115.5 170.5,114.5 170.5,113.5 Z"/></g>
<g><path style="opacity:1" fill="#fe8200" d="M 206.5,113.5 C 206.5,114.5 206.5,115.5 206.5,116.5C 204.5,116.5 202.5,116.5 200.5,116.5C 200.5,115.5 200.5,114.5 200.5,113.5C 202.5,113.5 204.5,113.5 206.5,113.5 Z"/></g>
<g><path style="opacity:1" fill="#fe8200" d="M 5.5,116.5 C 6.5,116.5 7.5,116.5 8.5,116.5C 8.5,117.5 8.5,118.5 8.5,119.5C 7.5,119.5 6.5,119.5 5.5,119.5C 5.5,118.5 5.5,117.5 5.5,116.5 Z"/></g>
<g><path style="opacity:1" fill="#fe8200" d="M 11.5,116.5 C 12.5,116.5 13.5,116.5 14.5,116.5C 14.5,117.5 14.5,118.5 14.5,119.5C 13.5,119.5 12.5,119.5 11.5,119.5C 11.5,118.5 11.5,117.5 11.5,116.5 Z"/></g>
<g><path style="opacity:1" fill="#fe8200" d="M 17.5,116.5 C 18.5,116.5 19.5,116.5 20.5,116.5C 20.5,117.5 20.5,118.5 20.5,119.5C 19.5,119.5 18.5,119.5 17.5,119.5C 17.5,118.5 17.5,117.5 17.5,116.5 Z"/></g>
<g><path style="opacity:1" fill="#fe8200" d="M 23.5,116.5 C 24.5,116.5 25.5,116.5 26.5,116.5C 26.5,117.5 26.5,118.5 26.5,119.5C 25.5,119.5 24.5,119.5 23.5,119.5C 23.5,118.5 23.5,117.5 23.5,116.5 Z"/></g>
<g><path style="opacity:1" fill="#fe8200" d="M 29.5,116.5 C 30.5,116.5 31.5,116.5 32.5,116.5C 32.5,117.5 32.5,118.5 32.5,119.5C 31.5,119.5 30.5,119.5 29.5,119.5C 29.5,118.5 29.5,117.5 29.5,116.5 Z"/></g>
<g><path style="opacity:1" fill="#fe8200" d="M 176.5,116.5 C 178.5,116.5 180.5,116.5 182.5,116.5C 182.5,117.5 182.5,118.5 182.5,119.5C 185.5,119.5 188.5,119.5 191.5,119.5C 191.5,120.5 191.5,121.5 191.5,122.5C 187.5,122.5 183.5,122.5 179.5,122.5C 179.5,121.5 179.5,120.5 179.5,119.5C 178.5,119.5 177.5,119.5 176.5,119.5C 176.5,118.5 176.5,117.5 176.5,116.5 Z"/></g>
<g><path style="opacity:1" fill="#fe8200" d="M 200.5,116.5 C 200.5,117.5 200.5,118.5 200.5,119.5C 197.5,119.5 194.5,119.5 191.5,119.5C 191.5,118.5 191.5,117.5 191.5,116.5C 194.5,116.5 197.5,116.5 200.5,116.5 Z"/></g>
<g><path style="opacity:1" fill="#fe8200" d="M 8.5,119.5 C 9.5,119.5 10.5,119.5 11.5,119.5C 11.5,120.5 11.5,121.5 11.5,122.5C 10.5,122.5 9.5,122.5 8.5,122.5C 8.5,121.5 8.5,120.5 8.5,119.5 Z"/></g>
<g><path style="opacity:1" fill="#fe8200" d="M 14.5,119.5 C 15.5,119.5 16.5,119.5 17.5,119.5C 17.5,120.5 17.5,121.5 17.5,122.5C 16.5,122.5 15.5,122.5 14.5,122.5C 14.5,121.5 14.5,120.5 14.5,119.5 Z"/></g>
<g><path style="opacity:1" fill="#fe8200" d="M 20.5,119.5 C 21.5,119.5 22.5,119.5 23.5,119.5C 23.5,120.5 23.5,121.5 23.5,122.5C 22.5,122.5 21.5,122.5 20.5,122.5C 20.5,121.5 20.5,120.5 20.5,119.5 Z"/></g>
<g><path style="opacity:1" fill="#fe8200" d="M 26.5,119.5 C 27.5,119.5 28.5,119.5 29.5,119.5C 29.5,120.5 29.5,121.5 29.5,122.5C 28.5,122.5 27.5,122.5 26.5,122.5C 26.5,121.5 26.5,120.5 26.5,119.5 Z"/></g>
<g><path style="opacity:1" fill="#fe8200" d="M 80.5,122.5 C 79.5,122.5 78.5,122.5 77.5,122.5C 77.5,121.5 77.5,120.5 77.5,119.5C 78.5,119.5 79.5,119.5 80.5,119.5C 80.5,120.5 80.5,121.5 80.5,122.5 Z"/></g>
<g><path style="opacity:1" fill="#fe8200" d="M 11.5,122.5 C 12.5,122.5 13.5,122.5 14.5,122.5C 14.5,123.5 14.5,124.5 14.5,125.5C 13.5,125.5 12.5,125.5 11.5,125.5C 11.5,124.5 11.5,123.5 11.5,122.5 Z"/></g>
<g><path style="opacity:1" fill="#fe8200" d="M 17.5,122.5 C 18.5,122.5 19.5,122.5 20.5,122.5C 20.5,123.5 20.5,124.5 20.5,125.5C 19.5,125.5 18.5,125.5 17.5,125.5C 17.5,124.5 17.5,123.5 17.5,122.5 Z"/></g>
<g><path style="opacity:1" fill="#fe8200" d="M 23.5,122.5 C 24.5,122.5 25.5,122.5 26.5,122.5C 26.5,123.5 26.5,124.5 26.5,125.5C 25.5,125.5 24.5,125.5 23.5,125.5C 23.5,124.5 23.5,123.5 23.5,122.5 Z"/></g>
<g><path style="opacity:1" fill="#fe8200" d="M 80.5,122.5 C 82.5,122.5 84.5,122.5 86.5,122.5C 86.5,123.5 86.5,124.5 86.5,125.5C 84.5,125.5 82.5,125.5 80.5,125.5C 80.5,124.5 80.5,123.5 80.5,122.5 Z"/></g>
<g><path style="opacity:1" fill="#fe8200" d="M 179.5,122.5 C 179.5,123.5 179.5,124.5 179.5,125.5C 174.5,125.5 169.5,125.5 164.5,125.5C 164.5,124.5 164.5,123.5 164.5,122.5C 169.5,122.5 174.5,122.5 179.5,122.5 Z"/></g>
<g><path style="opacity:1" fill="#fe8200" d="M 125.5,164.5 C 126.5,164.5 127.5,164.5 128.5,164.5C 128.5,165.5 128.5,166.5 128.5,167.5C 127.5,167.5 126.5,167.5 125.5,167.5C 125.5,166.5 125.5,165.5 125.5,164.5 Z"/></g>
<g><path style="opacity:1" fill="#fe8200" d="M 128.5,167.5 C 129.5,167.5 130.5,167.5 131.5,167.5C 131.5,168.5 131.5,169.5 131.5,170.5C 130.5,170.5 129.5,170.5 128.5,170.5C 128.5,169.5 128.5,168.5 128.5,167.5 Z"/></g>
<g><path style="opacity:1" fill="#fe8200" d="M 134.5,167.5 C 135.5,167.5 136.5,167.5 137.5,167.5C 137.5,168.5 137.5,169.5 137.5,170.5C 136.5,170.5 135.5,170.5 134.5,170.5C 134.5,169.5 134.5,168.5 134.5,167.5 Z"/></g>
<g><path style="opacity:1" fill="#fe8200" d="M 131.5,170.5 C 132.5,170.5 133.5,170.5 134.5,170.5C 134.5,171.5 134.5,172.5 134.5,173.5C 133.5,173.5 132.5,173.5 131.5,173.5C 131.5,172.5 131.5,171.5 131.5,170.5 Z"/></g>
<g><path style="opacity:1" fill="#fe8200" d="M 137.5,170.5 C 138.5,170.5 139.5,170.5 140.5,170.5C 140.5,171.5 140.5,172.5 140.5,173.5C 139.5,173.5 138.5,173.5 137.5,173.5C 137.5,172.5 137.5,171.5 137.5,170.5 Z"/></g>
<g><path style="opacity:1" fill="#fe8200" d="M 143.5,170.5 C 144.5,170.5 145.5,170.5 146.5,170.5C 146.5,171.5 146.5,172.5 146.5,173.5C 145.5,173.5 144.5,173.5 143.5,173.5C 143.5,172.5 143.5,171.5 143.5,170.5 Z"/></g>
<g><path style="opacity:1" fill="#fe8200" d="M 140.5,173.5 C 141.5,173.5 142.5,173.5 143.5,173.5C 143.5,174.5 143.5,175.5 143.5,176.5C 142.5,176.5 141.5,176.5 140.5,176.5C 140.5,175.5 140.5,174.5 140.5,173.5 Z"/></g>
<g><path style="opacity:1" fill="#fe8200" d="M 146.5,173.5 C 147.5,173.5 148.5,173.5 149.5,173.5C 149.5,174.5 149.5,175.5 149.5,176.5C 148.5,176.5 147.5,176.5 146.5,176.5C 146.5,175.5 146.5,174.5 146.5,173.5 Z"/></g>
</svg>
