<?xml version="1.0" encoding="UTF-8"?>
<!DOCTYPE svg PUBLIC "-//W3C//DTD SVG 1.1//EN" "http://www.w3.org/Graphics/SVG/1.1/DTD/svg11.dtd">
<svg xmlns="http://www.w3.org/2000/svg" version="1.1" width="300px" height="300px" style="shape-rendering:geometricPrecision; text-rendering:geometricPrecision; image-rendering:optimizeQuality; fill-rule:evenodd; clip-rule:evenodd" xmlns:xlink="http://www.w3.org/1999/xlink">
<g><path style="opacity:1" fill="#322423" d="M 252.5,107.5 C 250.188,105.854 248.188,103.854 246.5,101.5C 246.672,100.508 246.338,99.8417 245.5,99.5C 242.853,96.883 240.686,93.883 239,90.5C 236.946,83.3957 234.613,76.3957 232,69.5C 231.311,68.6433 230.478,67.9767 229.5,67.5C 228.52,70.0865 228.187,72.7531 228.5,75.5C 226.698,68.9048 225.865,61.9048 226,54.5C 220.287,47.0524 214.12,40.0524 207.5,33.5C 206.008,30.6769 203.674,29.0102 200.5,28.5C 200.158,27.6618 199.492,27.3284 198.5,27.5C 194.931,25.2741 190.931,24.2741 186.5,24.5C 182.347,24.1327 178.68,25.1327 175.5,27.5C 174.041,27.4326 172.708,27.7659 171.5,28.5C 167.585,30.7433 164.251,33.7433 161.5,37.5C 160.482,36.8075 159.482,36.1408 158.5,35.5C 154.447,29.6041 149.113,25.4374 142.5,23C 134.354,21.0377 126.188,19.2044 118,17.5C 116.301,17.3866 115.134,18.0532 114.5,19.5C 113.542,19.9528 112.708,20.6195 112,21.5C 109.787,25.9252 107.621,30.2585 105.5,34.5C 104.833,34.5 104.5,34.8333 104.5,35.5C 101.633,35.3692 99.9666,36.7026 99.5,39.5C 95.7234,44.0648 91.7234,48.3981 87.5,52.5C 82.1953,53.7912 76.862,54.7912 71.5,55.5C 65.816,55.7425 60.1493,56.2425 54.5,57C 53.244,57.4169 52.5774,58.2502 52.5,59.5C 44.0872,68.4012 40.4206,79.0679 41.5,91.5C 39.7775,93.2528 38.2775,95.2528 37,97.5C 34.648,99.0303 32.4813,100.697 30.5,102.5C 24.5164,104.242 19.0164,106.909 14,110.5C 11.37,115.943 9.5367,121.609 8.5,127.5C 7.83333,128.833 7.16667,130.167 6.5,131.5C 6.64572,124.555 8.14572,117.888 11,111.5C 13.2047,108.96 15.7047,106.793 18.5,105C 26.7972,102.609 33.6305,98.1093 39,91.5C 39.0509,78.6755 43.0509,67.3422 51,57.5C 52.1711,56.1068 53.6711,55.2735 55.5,55C 65.6104,54.3268 75.6104,52.9935 85.5,51C 87.6414,49.6924 89.6414,48.1924 91.5,46.5C 94.6163,41.2815 98.4496,36.6149 103,32.5C 106.217,26.5634 110.051,21.0634 114.5,16C 125.771,16.7882 136.771,19.1215 147.5,23C 152.603,26.2665 157.27,30.0998 161.5,34.5C 174.075,21.1868 188.408,19.0201 204.5,28C 212.667,36.8333 220.833,45.6667 229,54.5C 233.054,65.3295 236.721,76.3295 240,87.5C 244.814,93.8028 248.98,100.469 252.5,107.5 Z"/></g>
<g><path style="opacity:1" fill="#e59598" d="M 200.5,28.5 C 203.674,29.0102 206.008,30.6769 207.5,33.5C 207.167,33.5 206.833,33.5 206.5,33.5C 205.833,33.1667 205.167,32.8333 204.5,32.5C 203.167,31.1667 201.833,29.8333 200.5,28.5 Z"/></g>
<g><path style="opacity:1" fill="#5f1014" d="M 105.5,34.5 C 104.168,40.4937 102.835,46.4937 101.5,52.5C 100.81,46.7503 101.81,41.0836 104.5,35.5C 104.5,34.8333 104.833,34.5 105.5,34.5 Z"/></g>
<g><path style="opacity:1" fill="#cc2228" d="M 198.5,27.5 C 199.492,27.3284 200.158,27.6618 200.5,28.5C 201.833,29.8333 203.167,31.1667 204.5,32.5C 205.981,37.5546 206.647,43.0546 206.5,49C 205.822,55.1988 205.322,61.3654 205,67.5C 207.489,71.1712 210.656,73.8379 214.5,75.5C 214.281,76.675 214.614,77.675 215.5,78.5C 217.409,79.3482 219.409,79.6816 221.5,79.5C 224.056,86.5231 225.556,93.8564 226,101.5C 227.578,110.835 228.078,120.168 227.5,129.5C 226.839,128.282 226.172,126.949 225.5,125.5C 224.504,119.537 224.171,113.537 224.5,107.5C 223.5,107.5 222.5,107.5 221.5,107.5C 222.885,104.741 223.552,101.741 223.5,98.5C 222.94,93.4762 222.274,88.4762 221.5,83.5C 219.833,83.5 218.167,83.5 216.5,83.5C 216.5,86.1667 216.5,88.8333 216.5,91.5C 212.833,91.5 209.167,91.5 205.5,91.5C 205.5,93.1667 205.5,94.8333 205.5,96.5C 207.833,96.5 210.167,96.5 212.5,96.5C 212.5,97.5 212.5,98.5 212.5,99.5C 210.167,99.5 207.833,99.5 205.5,99.5C 205.5,104.833 205.5,110.167 205.5,115.5C 207.288,115.215 208.955,115.548 210.5,116.5C 208.846,118.824 207.179,121.158 205.5,123.5C 204.749,122.624 204.249,121.624 204,120.5C 201.199,121.795 198.366,121.795 195.5,120.5C 194.369,121.751 193.036,122.751 191.5,123.5C 190.353,123.182 189.519,122.516 189,121.5C 188.502,124.817 188.335,128.15 188.5,131.5C 189.5,131.5 190.5,131.5 191.5,131.5C 191.131,139.279 191.798,146.946 193.5,154.5C 193.291,155.086 192.957,155.586 192.5,156C 196.5,158.333 196.5,160.667 192.5,163C 193.872,165.958 195.539,168.791 197.5,171.5C 198.487,174.768 198.82,178.102 198.5,181.5C 203.5,182.003 203.167,182.336 197.5,182.5C 197.67,183.822 197.337,184.989 196.5,186C 197.793,186.49 199.127,186.657 200.5,186.5C 197.038,187.482 193.371,187.815 189.5,187.5C 189.092,186.357 188.425,185.357 187.5,184.5C 185.386,183.966 183.552,182.966 182,181.5C 179.451,172.688 176.618,164.022 173.5,155.5C 169.344,142.585 166.677,129.251 165.5,115.5C 165.334,111.486 165.501,107.486 166,103.5C 173.479,96.3842 178.979,88.0508 182.5,78.5C 185.167,77.1667 185.167,75.8333 182.5,74.5C 182.5,74.1667 182.5,73.8333 182.5,73.5C 181.332,65.4906 181.332,57.4906 182.5,49.5C 180.561,46.3852 178.394,43.3852 176,40.5C 175.752,35.8234 177.585,31.9901 181.5,29C 187.072,27.6493 192.738,27.1493 198.5,27.5 Z"/></g>
<g><path style="opacity:1" fill="#862526" d="M 206.5,33.5 C 206.833,33.5 207.167,33.5 207.5,33.5C 214.12,40.0524 220.287,47.0524 226,54.5C 225.865,61.9048 226.698,68.9048 228.5,75.5C 228.688,77.1033 228.188,78.4366 227,79.5C 225.887,78.2889 224.72,78.2889 223.5,79.5C 222.232,77.6957 221.565,75.6957 221.5,73.5C 223.124,73.3601 224.29,74.0267 225,75.5C 225.5,68.8417 225.666,62.175 225.5,55.5C 222.103,54.4319 220.103,52.0986 219.5,48.5C 217.801,48.6602 216.134,48.4935 214.5,48C 214.772,43.3041 212.606,39.8041 208,37.5C 207.59,36.0993 207.09,34.766 206.5,33.5 Z"/></g>
<g><path style="opacity:1" fill="#ca2328" d="M 158.5,35.5 C 159.069,38.3345 160.736,40.0012 163.5,40.5C 163.343,39.1266 163.51,37.7932 164,36.5C 166.705,33.9638 169.205,31.2971 171.5,28.5C 172.708,27.7659 174.041,27.4326 175.5,27.5C 173.688,32.6738 172.354,38.0071 171.5,43.5C 170.883,43.3893 170.383,43.056 170,42.5C 169.129,48.5316 169.962,54.1982 172.5,59.5C 173.371,62.1123 174.037,64.779 174.5,67.5C 174.579,68.9305 174.246,70.2638 173.5,71.5C 174.998,73.854 176.332,76.1873 177.5,78.5C 178.833,78.5 180.167,78.5 181.5,78.5C 179.144,85.3865 174.477,88.8865 167.5,89C 165.155,85.6814 163.155,85.8481 161.5,89.5C 161.631,88.7611 161.464,88.0944 161,87.5C 159.812,88.5634 159.312,89.8967 159.5,91.5C 157.019,91.226 155.353,89.8927 154.5,87.5C 155.097,87.2648 155.43,86.7648 155.5,86C 155,84.5 154.5,83 154,81.5C 152.092,78.6893 150.426,75.6893 149,72.5C 148.82,68.0764 148.653,63.7431 148.5,59.5C 145.606,62.7148 143.606,66.3814 142.5,70.5C 142.695,72.635 142.361,74.9684 141.5,77.5C 139.983,77.5106 138.816,78.1772 138,79.5C 136.882,77.2416 135.382,75.2416 133.5,73.5C 131.253,74.3742 128.92,74.7076 126.5,74.5C 126.827,69.7863 126.493,65.1196 125.5,60.5C 123.929,59.6906 122.262,59.3573 120.5,59.5C 120.552,56.4628 119.552,53.7961 117.5,51.5C 116.888,52.9953 116.888,54.6619 117.5,56.5C 117.36,58.0296 116.693,59.0296 115.5,59.5C 115.386,54.1982 113.219,49.8648 109,46.5C 107.16,41.1935 107.16,35.8602 109,30.5C 110.86,26.7802 112.693,23.1136 114.5,19.5C 115.134,18.0532 116.301,17.3866 118,17.5C 126.188,19.2044 134.354,21.0377 142.5,23C 149.113,25.4374 154.447,29.6041 158.5,35.5 Z"/></g>
<g><path style="opacity:1" fill="#961e1f" d="M 134.5,37.5 C 137.278,39.7578 140.278,40.0911 143.5,38.5C 145.166,37.3336 146.833,37.3336 148.5,38.5C 147.304,40.1446 146.304,41.8113 145.5,43.5C 145.5,42.5 145.5,41.5 145.5,40.5C 144.448,40.3505 143.448,40.5172 142.5,41C 140.843,43.3333 138.843,45.3333 136.5,47C 135.062,47.2189 133.729,47.7189 132.5,48.5C 131.462,52.7686 130.795,57.102 130.5,61.5C 129.676,64.7644 129.342,68.0977 129.5,71.5C 130.5,71.5 131.5,71.5 132.5,71.5C 131.432,72.4345 130.099,72.7678 128.5,72.5C 129.112,62.8222 129.946,53.1555 131,43.5C 131.008,40.6546 132.175,38.6546 134.5,37.5 Z"/></g>
<g><path style="opacity:1" fill="#772126" d="M 171.5,28.5 C 169.205,31.2971 166.705,33.9638 164,36.5C 163.51,37.7932 163.343,39.1266 163.5,40.5C 160.736,40.0012 159.069,38.3345 158.5,35.5C 159.482,36.1408 160.482,36.8075 161.5,37.5C 164.251,33.7433 167.585,30.7433 171.5,28.5 Z"/></g>
<g><path style="opacity:1" fill="#f3757e" d="M 143.5,38.5 C 140.278,40.0911 137.278,39.7578 134.5,37.5C 134.448,33.8019 134.114,30.1352 133.5,26.5C 135.924,26.1924 138.257,26.5258 140.5,27.5C 141.859,29.6922 143.692,31.3589 146,32.5C 145.517,34.5366 144.684,36.5366 143.5,38.5 Z"/></g>
<g><path style="opacity:1" fill="#f1818b" d="M 99.5,39.5 C 98.8333,41.1667 98.1667,42.8333 97.5,44.5C 96.9451,47.096 95.9451,49.4293 94.5,51.5C 93.5207,52.7653 92.5207,54.0986 91.5,55.5C 89.739,54.9649 88.4057,53.9649 87.5,52.5C 91.7234,48.3981 95.7234,44.0648 99.5,39.5 Z"/></g>
<g><path style="opacity:1" fill="#8d1a1d" d="M 97.5,44.5 C 98.4972,44.4701 99.1639,44.9701 99.5,46C 98.6328,49.1052 98.2994,52.2719 98.5,55.5C 97.1667,55.5 95.8333,55.5 94.5,55.5C 94.5,54.1667 94.5,52.8333 94.5,51.5C 95.9451,49.4293 96.9451,47.096 97.5,44.5 Z"/></g>
<g><path style="opacity:1" fill="#841d1d" d="M 145.5,43.5 C 144.206,47.0238 143.039,50.6905 142,54.5C 139.762,59.1256 137.262,63.459 134.5,67.5C 136.167,63.6613 136.667,59.6613 136,55.5C 133.469,56.9227 131.635,58.9227 130.5,61.5C 130.795,57.102 131.462,52.7686 132.5,48.5C 133.729,47.7189 135.062,47.2189 136.5,47C 138.843,45.3333 140.843,43.3333 142.5,41C 143.448,40.5172 144.448,40.3505 145.5,40.5C 145.5,41.5 145.5,42.5 145.5,43.5 Z"/></g>
<g><path style="opacity:1" fill="#6d191d" d="M 171.5,43.5 C 171.221,48.3266 171.887,52.9932 173.5,57.5C 172.662,57.8417 172.328,58.5084 172.5,59.5C 169.962,54.1982 169.129,48.5316 170,42.5C 170.383,43.056 170.883,43.3893 171.5,43.5 Z"/></g>
<g><path style="opacity:1" fill="#f07f88" d="M 198.5,27.5 C 192.738,27.1493 187.072,27.6493 181.5,29C 177.585,31.9901 175.752,35.8234 176,40.5C 178.394,43.3852 180.561,46.3852 182.5,49.5C 181.332,57.4906 181.332,65.4906 182.5,73.5C 178.491,68.8227 175.491,63.4894 173.5,57.5C 171.887,52.9932 171.221,48.3266 171.5,43.5C 172.354,38.0071 173.688,32.6738 175.5,27.5C 178.68,25.1327 182.347,24.1327 186.5,24.5C 190.931,24.2741 194.931,25.2741 198.5,27.5 Z"/></g>
<g><path style="opacity:1" fill="#ef7a82" d="M 114.5,19.5 C 112.693,23.1136 110.86,26.7802 109,30.5C 107.16,35.8602 107.16,41.1935 109,46.5C 113.219,49.8648 115.386,54.1982 115.5,59.5C 113.914,62.3432 112.58,65.3432 111.5,68.5C 111.886,70.9322 112.553,73.2655 113.5,75.5C 111.922,74.9344 110.588,73.9344 109.5,72.5C 107.489,69.1389 105.489,65.8056 103.5,62.5C 101.407,59.3692 100.74,56.0358 101.5,52.5C 102.835,46.4937 104.168,40.4937 105.5,34.5C 107.621,30.2585 109.787,25.9252 112,21.5C 112.708,20.6195 113.542,19.9528 114.5,19.5 Z"/></g>
<g><path style="opacity:1" fill="#511715" d="M 134.5,67.5 C 133.655,68.6715 132.989,70.0048 132.5,71.5C 131.5,71.5 130.5,71.5 129.5,71.5C 129.342,68.0977 129.676,64.7644 130.5,61.5C 131.635,58.9227 133.469,56.9227 136,55.5C 136.667,59.6613 136.167,63.6613 134.5,67.5 Z"/></g>
<g><path style="opacity:1" fill="#3f1316" d="M 173.5,57.5 C 175.491,63.4894 178.491,68.8227 182.5,73.5C 182.5,73.8333 182.5,74.1667 182.5,74.5C 182.565,74.9382 182.399,75.2716 182,75.5C 180.471,74.2713 179.304,72.7713 178.5,71C 177.552,70.5172 176.552,70.3505 175.5,70.5C 175.737,69.209 175.404,68.209 174.5,67.5C 174.037,64.779 173.371,62.1123 172.5,59.5C 172.328,58.5084 172.662,57.8417 173.5,57.5 Z"/></g>
<g><path style="opacity:1" fill="#f47179" d="M 154.5,87.5 C 153.833,86.1667 153.167,84.8333 152.5,83.5C 150.366,78.2261 147.033,73.8928 142.5,70.5C 143.606,66.3814 145.606,62.7148 148.5,59.5C 148.653,63.7431 148.82,68.0764 149,72.5C 150.426,75.6893 152.092,78.6893 154,81.5C 154.5,83 155,84.5 155.5,86C 155.43,86.7648 155.097,87.2648 154.5,87.5 Z"/></g>
<g><path style="opacity:1" fill="#892325" d="M 174.5,67.5 C 175.404,68.209 175.737,69.209 175.5,70.5C 176.552,70.3505 177.552,70.5172 178.5,71C 179.304,72.7713 180.471,74.2713 182,75.5C 182.399,75.2716 182.565,74.9382 182.5,74.5C 185.167,75.8333 185.167,77.1667 182.5,78.5C 182.167,77.1667 181.833,77.1667 181.5,78.5C 180.167,78.5 178.833,78.5 177.5,78.5C 176.332,76.1873 174.998,73.854 173.5,71.5C 174.246,70.2638 174.579,68.9305 174.5,67.5 Z"/></g>
<g><path style="opacity:1" fill="#f47983" d="M 71.5,55.5 C 64.9159,57.1953 65.2493,58.5286 72.5,59.5C 72.5,61.1667 72.5,62.8333 72.5,64.5C 71.325,64.281 70.325,64.6143 69.5,65.5C 68.8963,68.8978 68.0629,72.2312 67,75.5C 66.1697,70.1924 65.6697,64.8591 65.5,59.5C 54.8387,58.9926 49.5054,64.1592 49.5,75C 51.9611,86.3468 54.9611,97.5134 58.5,108.5C 57.6554,107.329 56.9887,105.995 56.5,104.5C 54.1514,97.6189 51.3181,90.9522 48,84.5C 46.9505,83.4829 45.7839,83.3162 44.5,84C 43.8906,85.9483 43.224,87.7816 42.5,89.5C 42.7908,84.0884 43.6241,78.7551 45,73.5C 47.7583,68.9251 50.2583,64.2585 52.5,59.5C 52.5774,58.2502 53.244,57.4169 54.5,57C 60.1493,56.2425 65.816,55.7425 71.5,55.5 Z"/></g>
<g><path style="opacity:1" fill="#711718" d="M 103.5,62.5 C 105.489,65.8056 107.489,69.1389 109.5,72.5C 110.588,73.9344 111.922,74.9344 113.5,75.5C 114.338,75.8417 114.672,76.5084 114.5,77.5C 114.539,78.5832 114.873,79.5832 115.5,80.5C 114.998,81.521 114.332,81.6877 113.5,81C 108.814,75.8123 105.147,69.979 102.5,63.5C 102.624,62.8933 102.957,62.56 103.5,62.5 Z"/></g>
<g><path style="opacity:1" fill="#a11e1f" d="M 204.5,32.5 C 205.167,32.8333 205.833,33.1667 206.5,33.5C 207.09,34.766 207.59,36.0993 208,37.5C 212.606,39.8041 214.772,43.3041 214.5,48C 216.134,48.4935 217.801,48.6602 219.5,48.5C 220.103,52.0986 222.103,54.4319 225.5,55.5C 225.666,62.175 225.5,68.8417 225,75.5C 224.29,74.0267 223.124,73.3601 221.5,73.5C 221.565,75.6957 222.232,77.6957 223.5,79.5C 224.72,78.2889 225.887,78.2889 227,79.5C 228.188,78.4366 228.688,77.1033 228.5,75.5C 230.117,74.4107 230.95,72.744 231,70.5C 232.248,79.5769 233.914,88.5769 236,97.5C 237.604,98.6493 239.27,98.6493 241,97.5C 242.406,98.4138 243.906,99.0805 245.5,99.5C 246.338,99.8417 246.672,100.508 246.5,101.5C 245.503,101.47 244.836,101.97 244.5,103C 248.308,112.076 249.974,121.576 249.5,131.5C 248.679,128.359 248.179,125.025 248,121.5C 247.333,120.833 246.667,120.167 246,119.5C 245.501,115.514 245.334,111.514 245.5,107.5C 242.387,107.935 241.721,106.935 243.5,104.5C 242.782,100.826 240.782,99.8263 237.5,101.5C 240.103,105.75 241.436,110.417 241.5,115.5C 240.5,115.5 239.5,115.5 238.5,115.5C 238.771,113.62 238.104,112.287 236.5,111.5C 234.978,106.784 233.145,102.118 231,97.5C 231.748,101.389 232.248,105.389 232.5,109.5C 233.008,112.176 233.175,114.843 233,117.5C 231.228,114.428 230.061,111.095 229.5,107.5C 229.167,108.833 228.833,110.167 228.5,111.5C 230.528,119.698 231.528,128.031 231.5,136.5C 230.577,146.882 229.244,157.215 227.5,167.5C 226.532,169.607 226.198,171.941 226.5,174.5C 226.5,175.167 226.167,175.5 225.5,175.5C 225.632,166.816 225.299,158.149 224.5,149.5C 225.025,144.79 226.359,140.29 228.5,136C 227.777,133.661 227.444,131.494 227.5,129.5C 228.078,120.168 227.578,110.835 226,101.5C 225.556,93.8564 224.056,86.5231 221.5,79.5C 219.409,79.6816 217.409,79.3482 215.5,78.5C 214.614,77.675 214.281,76.675 214.5,75.5C 210.656,73.8379 207.489,71.1712 205,67.5C 205.322,61.3654 205.822,55.1988 206.5,49C 206.647,43.0546 205.981,37.5546 204.5,32.5 Z"/></g>
<g><path style="opacity:1" fill="#e7a3a9" d="M 52.5,59.5 C 50.2583,64.2585 47.7583,68.9251 45,73.5C 43.6241,78.7551 42.7908,84.0884 42.5,89.5C 42.6716,90.4916 42.3382,91.1583 41.5,91.5C 40.4206,79.0679 44.0872,68.4012 52.5,59.5 Z"/></g>
<g><path style="opacity:1" fill="#d1232a" d="M 227.5,129.5 C 227.444,131.494 227.777,133.661 228.5,136C 226.359,140.29 225.025,144.79 224.5,149.5C 225.299,158.149 225.632,166.816 225.5,175.5C 224.926,177.788 223.926,179.955 222.5,182C 218.233,182.189 214.233,183.023 210.5,184.5C 208.302,184.875 206.302,185.542 204.5,186.5C 203.167,186.5 201.833,186.5 200.5,186.5C 199.127,186.657 197.793,186.49 196.5,186C 197.337,184.989 197.67,183.822 197.5,182.5C 203.167,182.336 203.5,182.003 198.5,181.5C 198.82,178.102 198.487,174.768 197.5,171.5C 195.539,168.791 193.872,165.958 192.5,163C 196.5,160.667 196.5,158.333 192.5,156C 192.957,155.586 193.291,155.086 193.5,154.5C 191.798,146.946 191.131,139.279 191.5,131.5C 190.5,131.5 189.5,131.5 188.5,131.5C 188.335,128.15 188.502,124.817 189,121.5C 189.519,122.516 190.353,123.182 191.5,123.5C 193.036,122.751 194.369,121.751 195.5,120.5C 198.366,121.795 201.199,121.795 204,120.5C 204.249,121.624 204.749,122.624 205.5,123.5C 207.179,121.158 208.846,118.824 210.5,116.5C 208.955,115.548 207.288,115.215 205.5,115.5C 205.5,110.167 205.5,104.833 205.5,99.5C 207.833,99.5 210.167,99.5 212.5,99.5C 212.5,98.5 212.5,97.5 212.5,96.5C 210.167,96.5 207.833,96.5 205.5,96.5C 205.5,94.8333 205.5,93.1667 205.5,91.5C 209.167,91.5 212.833,91.5 216.5,91.5C 216.5,88.8333 216.5,86.1667 216.5,83.5C 218.167,83.5 219.833,83.5 221.5,83.5C 222.274,88.4762 222.94,93.4762 223.5,98.5C 223.552,101.741 222.885,104.741 221.5,107.5C 222.5,107.5 223.5,107.5 224.5,107.5C 224.171,113.537 224.504,119.537 225.5,125.5C 226.172,126.949 226.839,128.282 227.5,129.5 Z"/></g>
<g><path style="opacity:1" fill="#cb343f" d="M 56.5,104.5 C 54.4559,102.781 52.4559,101.114 50.5,99.5C 50.1544,95.6234 48.9878,91.9567 47,88.5C 45.6575,87.0977 44.8242,87.4311 44.5,89.5C 44.8457,90.8492 45.179,92.1825 45.5,93.5C 44.1667,92.1667 42.8333,92.1667 41.5,93.5C 41.5,92.8333 41.5,92.1667 41.5,91.5C 42.3382,91.1583 42.6716,90.4916 42.5,89.5C 43.224,87.7816 43.8906,85.9483 44.5,84C 45.7839,83.3162 46.9505,83.4829 48,84.5C 51.3181,90.9522 54.1514,97.6189 56.5,104.5 Z"/></g>
<g><path style="opacity:1" fill="#8a2526" d="M 245.5,99.5 C 243.906,99.0805 242.406,98.4138 241,97.5C 239.27,98.6493 237.604,98.6493 236,97.5C 233.914,88.5769 232.248,79.5769 231,70.5C 230.95,72.744 230.117,74.4107 228.5,75.5C 228.187,72.7531 228.52,70.0865 229.5,67.5C 230.478,67.9767 231.311,68.6433 232,69.5C 234.613,76.3957 236.946,83.3957 239,90.5C 240.686,93.883 242.853,96.883 245.5,99.5 Z"/></g>
<g><path style="opacity:1" fill="#491013" d="M 50.5,99.5 C 48.8362,97.5921 47.1695,95.5921 45.5,93.5C 45.179,92.1825 44.8457,90.8492 44.5,89.5C 44.8242,87.4311 45.6575,87.0977 47,88.5C 48.9878,91.9567 50.1544,95.6234 50.5,99.5 Z"/></g>
<g><path style="opacity:1" fill="#e68690" d="M 41.5,91.5 C 41.5,92.1667 41.5,92.8333 41.5,93.5C 39.9172,95.6626 38.5839,97.9959 37.5,100.5C 35.4091,101.865 33.0758,102.532 30.5,102.5C 32.4813,100.697 34.648,99.0303 37,97.5C 38.2775,95.2528 39.7775,93.2528 41.5,91.5 Z"/></g>
<g><path style="opacity:1" fill="#f17680" d="M 182.5,78.5 C 178.979,88.0508 173.479,96.3842 166,103.5C 165.501,107.486 165.334,111.486 165.5,115.5C 163.986,108.391 163.153,101.058 163,93.5C 162.617,92.944 162.117,92.6107 161.5,92.5C 161.5,91.5 161.5,90.5 161.5,89.5C 163.155,85.8481 165.155,85.6814 167.5,89C 174.477,88.8865 179.144,85.3865 181.5,78.5C 181.833,77.1667 182.167,77.1667 182.5,78.5 Z"/></g>
<g><path style="opacity:1" fill="#cf2228" d="M 141.5,77.5 C 142.953,81.3935 144.287,85.3935 145.5,89.5C 145.747,90.7133 146.414,91.38 147.5,91.5C 147.411,98.8905 148.911,105.89 152,112.5C 154.978,125.054 157.311,137.721 159,150.5C 163.532,162.581 165.698,175.081 165.5,188C 163.822,190.194 162.822,192.694 162.5,195.5C 160.302,195.875 158.302,196.542 156.5,197.5C 155.167,197.5 153.833,197.5 152.5,197.5C 151.432,196.566 150.099,196.232 148.5,196.5C 147.486,193.493 146.486,190.493 145.5,187.5C 144.5,187.5 143.5,187.5 142.5,187.5C 141.871,185.014 140.871,182.681 139.5,180.5C 139.673,178.962 140.006,177.462 140.5,176C 138.536,164.453 136.37,152.953 134,141.5C 133.502,138.183 133.335,134.85 133.5,131.5C 132.5,131.5 131.5,131.5 130.5,131.5C 129.808,123.398 128.475,115.398 126.5,107.5C 128.451,107.773 129.951,107.107 131,105.5C 132.503,98.8367 133.003,92.17 132.5,85.5C 132.132,84.09 131.299,83.09 130,82.5C 127.999,86.985 124.499,88.6516 119.5,87.5C 119.286,89.1439 119.62,90.6439 120.5,92C 119.5,92.6667 118.5,92.6667 117.5,92C 115.167,89 112.833,86 110.5,83C 112.797,82.9822 115.131,83.1489 117.5,83.5C 117.5,81.5 117.5,79.5 117.5,77.5C 116.5,77.5 115.5,77.5 114.5,77.5C 114.672,76.5084 114.338,75.8417 113.5,75.5C 112.553,73.2655 111.886,70.9322 111.5,68.5C 112.58,65.3432 113.914,62.3432 115.5,59.5C 116.693,59.0296 117.36,58.0296 117.5,56.5C 116.888,54.6619 116.888,52.9953 117.5,51.5C 119.552,53.7961 120.552,56.4628 120.5,59.5C 122.262,59.3573 123.929,59.6906 125.5,60.5C 126.493,65.1196 126.827,69.7863 126.5,74.5C 128.92,74.7076 131.253,74.3742 133.5,73.5C 135.382,75.2416 136.882,77.2416 138,79.5C 138.816,78.1772 139.983,77.5106 141.5,77.5 Z"/></g>
<g><path style="opacity:1" fill="#7e1e20" d="M 152.5,83.5 C 153.167,84.8333 153.833,86.1667 154.5,87.5C 155.353,89.8927 157.019,91.226 159.5,91.5C 159.312,89.8967 159.812,88.5634 161,87.5C 161.464,88.0944 161.631,88.7611 161.5,89.5C 161.5,90.5 161.5,91.5 161.5,92.5C 161.5,92.8333 161.5,93.1667 161.5,93.5C 159.833,93.5 158.167,93.5 156.5,93.5C 157.954,96.9782 158.954,100.645 159.5,104.5C 160.372,110.789 160.705,117.122 160.5,123.5C 159.299,117.316 158.132,110.983 157,104.5C 156.808,106.577 156.308,108.577 155.5,110.5C 154.457,104.597 152.791,98.9307 150.5,93.5C 151.208,91.2221 150.374,89.2221 148,87.5C 147.51,86.2068 147.343,84.8734 147.5,83.5C 149.167,83.5 150.833,83.5 152.5,83.5 Z"/></g>
<g><path style="opacity:1" fill="#281414" d="M 161.5,93.5 C 161.5,95.5 161.5,97.5 161.5,99.5C 161.662,101.527 161.495,103.527 161,105.5C 160.617,104.944 160.117,104.611 159.5,104.5C 158.954,100.645 157.954,96.9782 156.5,93.5C 158.167,93.5 159.833,93.5 161.5,93.5 Z"/></g>
<g><path style="opacity:1" fill="#570f12" d="M 97.5,101.5 C 98.4584,101.953 99.2917,102.619 100,103.5C 100.278,102.584 100.778,101.918 101.5,101.5C 102.126,111.543 103.126,121.543 104.5,131.5C 102.178,123.593 100.678,115.259 100,106.5C 99.6232,105.058 98.7899,104.058 97.5,103.5C 97.5,102.833 97.5,102.167 97.5,101.5 Z"/></g>
<g><path style="opacity:1" fill="#f3676e" d="M 37.5,100.5 C 36.6586,102.379 36.3253,104.379 36.5,106.5C 32.6089,105.452 28.9422,106.119 25.5,108.5C 24.7375,107.732 23.7375,107.232 22.5,107C 24.5883,105.97 26.755,105.137 29,104.5C 30.0299,104.164 30.5299,103.497 30.5,102.5C 33.0758,102.532 35.4091,101.865 37.5,100.5 Z"/></g>
<g><path style="opacity:1" fill="#641519" d="M 50.5,99.5 C 52.4559,101.114 54.4559,102.781 56.5,104.5C 56.9887,105.995 57.6554,107.329 58.5,108.5C 58.3284,109.492 58.6618,110.158 59.5,110.5C 59.6495,111.552 59.4828,112.552 59,113.5C 57.3775,112.901 55.8775,112.234 54.5,111.5C 58.31,110.754 58.31,109.754 54.5,108.5C 52.9091,105.648 51.5758,102.648 50.5,99.5 Z"/></g>
<g><path style="opacity:1" fill="#ce2127" d="M 92.5,102.5 C 94.5554,110.306 96.3888,118.306 98,126.5C 100.181,147.167 103.014,167.5 106.5,187.5C 107.187,192.9 107.854,198.4 108.5,204C 106.734,205.698 104.734,207.031 102.5,208C 98.6283,209.766 94.6283,211.266 90.5,212.5C 85.2835,212.421 79.9501,212.254 74.5,212C 75.2489,210.266 75.7489,208.433 76,206.5C 77.9738,209.118 79.8071,208.952 81.5,206C 80.2889,204.887 80.2889,203.72 81.5,202.5C 81.0233,201.522 80.3567,200.689 79.5,200C 80.3081,199.692 80.9747,199.192 81.5,198.5C 81.1543,197.304 80.6543,197.304 80,198.5C 77.064,192.283 76.2307,185.95 77.5,179.5C 76.5,179.5 75.5,179.5 74.5,179.5C 75.4635,170.55 76.1302,161.55 76.5,152.5C 76.1667,148.167 75.8333,143.833 75.5,139.5C 72.4671,149.679 71.1337,149.679 71.5,139.5C 69.8762,139.36 68.7096,140.027 68,141.5C 64.9112,137.224 64.0779,132.557 65.5,127.5C 65.2837,125.616 64.617,123.949 63.5,122.5C 67.5789,120.109 67.2456,118.275 62.5,117C 62.8333,116.667 63.1667,116.333 63.5,116C 62.552,115.517 61.552,115.351 60.5,115.5C 60.4208,114.07 60.7542,112.736 61.5,111.5C 61.0431,110.702 60.3764,110.369 59.5,110.5C 58.079,104.887 60.079,102.72 65.5,104C 66.0219,104.561 66.3552,105.228 66.5,106C 64.7421,108.267 64.2421,110.767 65,113.5C 67,112.833 68.3333,111.5 69,109.5C 69.3333,112.5 69.6667,115.5 70,118.5C 72.3806,119.435 74.8806,119.768 77.5,119.5C 77.5,118.5 77.5,117.5 77.5,116.5C 79.1992,116.66 80.8659,116.494 82.5,116C 80.8934,114.951 80.2267,113.451 80.5,111.5C 82.6196,109.028 84.2863,106.194 85.5,103C 87.8098,102.503 90.1432,102.337 92.5,102.5 Z"/></g>
<g><path style="opacity:1" fill="#1f130a" d="M 54.5,108.5 C 58.31,109.754 58.31,110.754 54.5,111.5C 54.5,110.5 54.5,109.5 54.5,108.5 Z"/></g>
<g><path style="opacity:1" fill="#e6656e" d="M 24.5,108.5 C 20.6483,113.046 16.8149,117.713 13,122.5C 11.0382,127.656 10.2049,132.989 10.5,138.5C 11.4408,140.05 12.1075,141.716 12.5,143.5C 11.8333,143.167 11.1667,142.833 10.5,142.5C 9.68137,140.228 9.0147,137.894 8.5,135.5C 9.20544,127.714 11.5388,120.381 15.5,113.5C 14.3318,112.094 14.6652,110.928 16.5,110C 19.0627,108.921 21.7294,108.421 24.5,108.5 Z"/></g>
<g><path style="opacity:1" fill="#861f1f" d="M 249.5,131.5 C 249.5,134.167 249.5,136.833 249.5,139.5C 248.5,139.5 247.5,139.5 246.5,139.5C 246.265,143.577 245.598,147.577 244.5,151.5C 243.998,152.521 243.332,152.688 242.5,152C 241.219,150.591 240.219,149.091 239.5,147.5C 238.716,140.433 237.716,133.433 236.5,126.5C 236.5,121.5 236.5,116.5 236.5,111.5C 238.104,112.287 238.771,113.62 238.5,115.5C 239.5,115.5 240.5,115.5 241.5,115.5C 241.436,110.417 240.103,105.75 237.5,101.5C 240.782,99.8263 242.782,100.826 243.5,104.5C 241.721,106.935 242.387,107.935 245.5,107.5C 245.334,111.514 245.501,115.514 246,119.5C 246.667,120.167 247.333,120.833 248,121.5C 248.179,125.025 248.679,128.359 249.5,131.5 Z"/></g>
<g><path style="opacity:1" fill="#41080b" d="M 236.5,111.5 C 236.5,116.5 236.5,121.5 236.5,126.5C 236.167,126.5 235.833,126.5 235.5,126.5C 235.55,121.448 235.05,116.448 234,111.5C 233.722,110.584 233.222,109.918 232.5,109.5C 232.248,105.389 231.748,101.389 231,97.5C 233.145,102.118 234.978,106.784 236.5,111.5 Z"/></g>
<g><path style="opacity:1" fill="#e8858e" d="M 30.5,102.5 C 30.5299,103.497 30.0299,104.164 29,104.5C 26.755,105.137 24.5883,105.97 22.5,107C 23.7375,107.232 24.7375,107.732 25.5,108.5C 25.1667,108.5 24.8333,108.5 24.5,108.5C 21.7294,108.421 19.0627,108.921 16.5,110C 14.6652,110.928 14.3318,112.094 15.5,113.5C 11.5388,120.381 9.20544,127.714 8.5,135.5C 8.5,132.833 8.5,130.167 8.5,127.5C 9.5367,121.609 11.37,115.943 14,110.5C 19.0164,106.909 24.5164,104.242 30.5,102.5 Z"/></g>
<g><path style="opacity:1" fill="#43181a" d="M 161.5,99.5 C 165.077,128.759 169.077,158.093 173.5,187.5C 173.5,188.167 173.167,188.5 172.5,188.5C 167.88,172.232 165.214,155.566 164.5,138.5C 163.604,133.123 162.271,128.123 160.5,123.5C 160.705,117.122 160.372,110.789 159.5,104.5C 160.117,104.611 160.617,104.944 161,105.5C 161.495,103.527 161.662,101.527 161.5,99.5 Z"/></g>
<g><path style="opacity:1" fill="#ce2328" d="M 255.5,115.5 C 256.983,117.094 258.483,118.76 260,120.5C 268.058,135.612 276.891,150.278 286.5,164.5C 286.396,166.973 285.396,167.639 283.5,166.5C 282.548,168.045 282.215,169.712 282.5,171.5C 281.519,173.309 280.019,174.643 278,175.5C 276.905,179.608 275.738,183.608 274.5,187.5C 273.5,187.5 272.5,187.5 271.5,187.5C 271.007,189.806 270.674,192.139 270.5,194.5C 268.242,196.046 266.409,198.046 265,200.5C 261.047,207.508 257.88,214.842 255.5,222.5C 254.5,222.5 253.5,222.5 252.5,222.5C 252.765,218.882 252.265,215.215 251,211.5C 247.529,206.523 244.696,201.189 242.5,195.5C 245.693,184.755 249.193,174.088 253,163.5C 253.706,158.688 254.206,153.854 254.5,149C 252.232,138.548 250.898,127.881 250.5,117C 251.512,113.42 253.178,112.92 255.5,115.5 Z"/></g>
<g><path style="opacity:1" fill="#f17c85" d="M 70.5,218.5 C 69.1667,219.167 67.8333,219.833 66.5,220.5C 66.1667,220.5 65.8333,220.5 65.5,220.5C 64.3995,219.395 63.7329,218.062 63.5,216.5C 60.1712,198.514 56.8379,180.514 53.5,162.5C 53.3601,160.97 52.6935,159.97 51.5,159.5C 50.7347,156.904 50.4013,154.237 50.5,151.5C 50.1491,147.316 49.4824,143.316 48.5,139.5C 48.5745,133.28 47.5745,127.28 45.5,121.5C 44.962,119.883 44.6287,118.216 44.5,116.5C 44.7134,113.525 45.7134,110.858 47.5,108.5C 54.47,117.593 57.3033,127.926 56,139.5C 61.1825,164.079 65.8492,188.746 70,213.5C 71.5095,214.09 73.0095,214.756 74.5,215.5C 72.6684,216.057 71.3351,217.057 70.5,218.5 Z"/></g>
<g><path style="opacity:1" fill="#2d100e" d="M 235.5,126.5 C 235.833,126.5 236.167,126.5 236.5,126.5C 237.716,133.433 238.716,140.433 239.5,147.5C 240.051,150.807 240.384,154.14 240.5,157.5C 241.675,157.719 242.675,157.386 243.5,156.5C 244.035,154.739 245.035,153.406 246.5,152.5C 243.401,160.017 240.901,167.684 239,175.5C 239.652,168.82 239.485,162.153 238.5,155.5C 237.555,146.819 235.888,138.486 233.5,130.5C 232.766,129.292 232.433,127.959 232.5,126.5C 233.5,126.5 234.5,126.5 235.5,126.5 Z"/></g>
<g><path style="opacity:1" fill="#4f090b" d="M 10.5,138.5 C 12.0174,138.511 13.1841,139.177 14,140.5C 15.8551,143.554 17.6884,146.554 19.5,149.5C 20.0283,150.847 20.195,152.181 20,153.5C 17.2519,150.266 14.7519,146.932 12.5,143.5C 12.1075,141.716 11.4408,140.05 10.5,138.5 Z"/></g>
<g><path style="opacity:1" fill="#902020" d="M 142.5,70.5 C 147.033,73.8928 150.366,78.2261 152.5,83.5C 150.833,83.5 149.167,83.5 147.5,83.5C 147.343,84.8734 147.51,86.2068 148,87.5C 150.374,89.2221 151.208,91.2221 150.5,93.5C 152.791,98.9307 154.457,104.597 155.5,110.5C 156.308,108.577 156.808,106.577 157,104.5C 158.132,110.983 159.299,117.316 160.5,123.5C 162.271,128.123 163.604,133.123 164.5,138.5C 165.214,155.566 167.88,172.232 172.5,188.5C 170.952,188.821 170.285,189.821 170.5,191.5C 169.5,192.167 168.5,192.833 167.5,193.5C 167.263,189.278 167.596,185.111 168.5,181C 168.387,179.72 167.72,178.887 166.5,178.5C 165.833,172.167 165.167,165.833 164.5,159.5C 163.029,158.619 162.196,157.286 162,155.5C 159.96,133.355 155.127,112.022 147.5,91.5C 146.414,91.38 145.747,90.7133 145.5,89.5C 144.287,85.3935 142.953,81.3935 141.5,77.5C 142.361,74.9684 142.695,72.635 142.5,70.5 Z"/></g>
<g><path style="opacity:1" fill="#c82126" d="M 104.5,35.5 C 101.81,41.0836 100.81,46.7503 101.5,52.5C 100.74,56.0358 101.407,59.3692 103.5,62.5C 102.957,62.56 102.624,62.8933 102.5,63.5C 105.147,69.979 108.814,75.8123 113.5,81C 114.332,81.6877 114.998,81.521 115.5,80.5C 114.873,79.5832 114.539,78.5832 114.5,77.5C 115.5,77.5 116.5,77.5 117.5,77.5C 117.5,79.5 117.5,81.5 117.5,83.5C 115.131,83.1489 112.797,82.9822 110.5,83C 112.833,86 115.167,89 117.5,92C 118.5,92.6667 119.5,92.6667 120.5,92C 119.62,90.6439 119.286,89.1439 119.5,87.5C 124.499,88.6516 127.999,86.985 130,82.5C 131.299,83.09 132.132,84.09 132.5,85.5C 133.003,92.17 132.503,98.8367 131,105.5C 129.951,107.107 128.451,107.773 126.5,107.5C 128.475,115.398 129.808,123.398 130.5,131.5C 131.5,131.5 132.5,131.5 133.5,131.5C 133.335,134.85 133.502,138.183 134,141.5C 136.37,152.953 138.536,164.453 140.5,176C 140.006,177.462 139.673,178.962 139.5,180.5C 140.871,182.681 141.871,185.014 142.5,187.5C 143.5,187.5 144.5,187.5 145.5,187.5C 146.486,190.493 147.486,193.493 148.5,196.5C 150.099,196.232 151.432,196.566 152.5,197.5C 148.736,198.992 144.736,199.992 140.5,200.5C 135.527,197.716 130.193,195.216 124.5,193C 122.274,190.047 120.441,186.88 119,183.5C 117.21,174.083 115.21,164.75 113,155.5C 112.737,148.08 113.071,140.746 114,133.5C 108.24,126.704 106.906,119.038 110,110.5C 111.872,105.052 114.039,99.7186 116.5,94.5C 114.597,91.0349 112.43,87.7016 110,84.5C 108.989,83.6634 107.822,83.33 106.5,83.5C 105.566,82.4324 105.232,81.099 105.5,79.5C 101.427,79.9464 99.4271,82.2798 99.5,86.5C 98.1667,86.5 96.8333,86.5 95.5,86.5C 94.9897,82.4398 94.1564,78.4398 93,74.5C 91.4912,72.0807 89.3245,71.0807 86.5,71.5C 86.5,73.5 86.5,75.5 86.5,77.5C 85.3182,71.6985 84.6516,65.6985 84.5,59.5C 83.1667,59.5 81.8333,59.5 80.5,59.5C 80.5,62.1667 80.5,64.8333 80.5,67.5C 78.665,66.8777 77.4983,65.5444 77,63.5C 74.8699,67.1716 74.0366,71.1716 74.5,75.5C 74.5,78.1667 74.5,80.8333 74.5,83.5C 72.631,85.6353 71.9644,88.3019 72.5,91.5C 72.0541,99.9608 71.8875,108.627 72,117.5C 73.3561,118.38 74.8561,118.714 76.5,118.5C 76.5548,115.386 77.8881,113.052 80.5,111.5C 80.2267,113.451 80.8934,114.951 82.5,116C 80.8659,116.494 79.1992,116.66 77.5,116.5C 77.5,117.5 77.5,118.5 77.5,119.5C 74.8806,119.768 72.3806,119.435 70,118.5C 69.6667,115.5 69.3333,112.5 69,109.5C 68.3333,111.5 67,112.833 65,113.5C 64.2421,110.767 64.7421,108.267 66.5,106C 66.3552,105.228 66.0219,104.561 65.5,104C 60.079,102.72 58.079,104.887 59.5,110.5C 58.6618,110.158 58.3284,109.492 58.5,108.5C 54.9611,97.5134 51.9611,86.3468 49.5,75C 49.5054,64.1592 54.8387,58.9926 65.5,59.5C 65.6697,64.8591 66.1697,70.1924 67,75.5C 68.0629,72.2312 68.8963,68.8978 69.5,65.5C 70.325,64.6143 71.325,64.281 72.5,64.5C 72.5,62.8333 72.5,61.1667 72.5,59.5C 65.2493,58.5286 64.9159,57.1953 71.5,55.5C 76.862,54.7912 82.1953,53.7912 87.5,52.5C 88.4057,53.9649 89.739,54.9649 91.5,55.5C 92.5207,54.0986 93.5207,52.7653 94.5,51.5C 94.5,52.8333 94.5,54.1667 94.5,55.5C 95.8333,55.5 97.1667,55.5 98.5,55.5C 98.2994,52.2719 98.6328,49.1052 99.5,46C 99.1639,44.9701 98.4972,44.4701 97.5,44.5C 98.1667,42.8333 98.8333,41.1667 99.5,39.5C 99.9666,36.7026 101.633,35.3692 104.5,35.5 Z"/></g>
<g><path style="opacity:1" fill="#9d1b1c" d="M 72.5,91.5 C 73.3409,98.4648 73.6743,105.465 73.5,112.5C 74.8734,112.657 76.2068,112.49 77.5,112C 80.1284,109.246 82.1284,106.079 83.5,102.5C 86.6346,101.217 89.6346,101.217 92.5,102.5C 90.1432,102.337 87.8098,102.503 85.5,103C 84.2863,106.194 82.6196,109.028 80.5,111.5C 77.8881,113.052 76.5548,115.386 76.5,118.5C 74.8561,118.714 73.3561,118.38 72,117.5C 71.8875,108.627 72.0541,99.9608 72.5,91.5 Z"/></g>
<g><path style="opacity:1" fill="#250f0e" d="M 101.5,91.5 C 102.451,92.9187 102.784,94.5853 102.5,96.5C 102.371,98.2161 102.038,99.8828 101.5,101.5C 100.778,101.918 100.278,102.584 100,103.5C 99.2917,102.619 98.4584,101.953 97.5,101.5C 97.2786,100.265 96.6119,99.2652 95.5,98.5C 100.397,98.6053 102.397,96.272 101.5,91.5 Z"/></g>
<g><path style="opacity:1" fill="#671d1e" d="M 101.5,91.5 C 102.397,96.272 100.397,98.6053 95.5,98.5C 96.6119,99.2652 97.2786,100.265 97.5,101.5C 94.4741,100.826 91.4741,99.9931 88.5,99C 90.1124,98.2797 91.6124,98.4464 93,99.5C 92.8651,97.5753 92.6984,95.5753 92.5,93.5C 93.5,93.5 94.5,93.5 95.5,93.5C 95.5,92.1667 95.5,90.8333 95.5,89.5C 98.0821,89.0254 100.082,89.6921 101.5,91.5 Z"/></g>
<g><path style="opacity:1" fill="#851c1d" d="M 80.5,67.5 C 81.1153,72.121 81.782,76.7877 82.5,81.5C 84.6709,83.8396 86.3375,86.5063 87.5,89.5C 87.8333,88.8333 88.1667,88.1667 88.5,87.5C 87.5123,84.2184 86.8457,80.8851 86.5,77.5C 86.5,75.5 86.5,73.5 86.5,71.5C 89.3245,71.0807 91.4912,72.0807 93,74.5C 94.1564,78.4398 94.9897,82.4398 95.5,86.5C 96.8333,86.5 98.1667,86.5 99.5,86.5C 99.4271,82.2798 101.427,79.9464 105.5,79.5C 105.232,81.099 105.566,82.4324 106.5,83.5C 106.114,88.2277 104.781,92.561 102.5,96.5C 102.784,94.5853 102.451,92.9187 101.5,91.5C 100.082,89.6921 98.0821,89.0254 95.5,89.5C 95.5,90.8333 95.5,92.1667 95.5,93.5C 94.5,93.5 93.5,93.5 92.5,93.5C 92.6984,95.5753 92.8651,97.5753 93,99.5C 91.6124,98.4464 90.1124,98.2797 88.5,99C 91.4741,99.9931 94.4741,100.826 97.5,101.5C 97.5,102.167 97.5,102.833 97.5,103.5C 95.8828,102.962 94.2161,102.629 92.5,102.5C 89.6346,101.217 86.6346,101.217 83.5,102.5C 82.1284,106.079 80.1284,109.246 77.5,112C 76.2068,112.49 74.8734,112.657 73.5,112.5C 73.6743,105.465 73.3409,98.4648 72.5,91.5C 71.9644,88.3019 72.631,85.6353 74.5,83.5C 75.2679,82.7375 75.7679,81.7375 76,80.5C 76.1667,82.3333 76.3333,84.1667 76.5,86C 75.5143,91.1245 74.8476,96.2911 74.5,101.5C 75.8333,101.5 77.1667,101.5 78.5,101.5C 78.2245,93.9172 78.0578,86.2506 78,78.5C 76.7844,76.038 76.1177,73.3713 76,70.5C 75.8019,72.3817 75.3019,74.0484 74.5,75.5C 74.0366,71.1716 74.8699,67.1716 77,63.5C 77.4983,65.5444 78.665,66.8777 80.5,67.5 Z"/></g>
<g><path style="opacity:1" fill="#541413" d="M 74.5,83.5 C 74.5,80.8333 74.5,78.1667 74.5,75.5C 75.3019,74.0484 75.8019,72.3817 76,70.5C 76.1177,73.3713 76.7844,76.038 78,78.5C 78.0578,86.2506 78.2245,93.9172 78.5,101.5C 77.1667,101.5 75.8333,101.5 74.5,101.5C 74.8476,96.2911 75.5143,91.1245 76.5,86C 76.3333,84.1667 76.1667,82.3333 76,80.5C 75.7679,81.7375 75.2679,82.7375 74.5,83.5 Z"/></g>
<g><path style="opacity:1" fill="#f3717a" d="M 86.5,77.5 C 86.8457,80.8851 87.5123,84.2184 88.5,87.5C 88.1667,88.1667 87.8333,88.8333 87.5,89.5C 86.3375,86.5063 84.6709,83.8396 82.5,81.5C 81.782,76.7877 81.1153,72.121 80.5,67.5C 80.5,64.8333 80.5,62.1667 80.5,59.5C 81.8333,59.5 83.1667,59.5 84.5,59.5C 84.6516,65.6985 85.3182,71.6985 86.5,77.5 Z"/></g>
<g><path style="opacity:0.561" fill="#6a4447" d="M 8.5,127.5 C 8.5,130.167 8.5,132.833 8.5,135.5C 9.0147,137.894 9.68137,140.228 10.5,142.5C 12.5919,151.102 14.2586,159.769 15.5,168.5C 14.5655,169.568 14.2322,170.901 14.5,172.5C 12.3492,158.868 9.68249,145.201 6.5,131.5C 7.16667,130.167 7.83333,128.833 8.5,127.5 Z"/></g>
<g><path style="opacity:1" fill="#6d2122" d="M 249.5,139.5 C 250.451,140.919 250.784,142.585 250.5,144.5C 249.044,147.068 247.711,149.734 246.5,152.5C 245.035,153.406 244.035,154.739 243.5,156.5C 242.675,157.386 241.675,157.719 240.5,157.5C 240.384,154.14 240.051,150.807 239.5,147.5C 240.219,149.091 241.219,150.591 242.5,152C 243.332,152.688 243.998,152.521 244.5,151.5C 245.598,147.577 246.265,143.577 246.5,139.5C 247.5,139.5 248.5,139.5 249.5,139.5 Z"/></g>
<g><path style="opacity:1" fill="#9a1f20" d="M 92.5,102.5 C 94.2161,102.629 95.8828,102.962 97.5,103.5C 98.7899,104.058 99.6232,105.058 100,106.5C 100.678,115.259 102.178,123.593 104.5,131.5C 105.615,142.226 106.948,152.893 108.5,163.5C 107.5,163.5 106.5,163.5 105.5,163.5C 106.166,171.483 106.499,179.483 106.5,187.5C 103.014,167.5 100.181,147.167 98,126.5C 96.3888,118.306 94.5554,110.306 92.5,102.5 Z"/></g>
<g><path style="opacity:1" fill="#621717" d="M 233.5,130.5 C 235.888,138.486 237.555,146.819 238.5,155.5C 237.71,154.391 237.21,153.058 237,151.5C 236.667,157.5 236.333,163.5 236,169.5C 234.983,171.376 234.149,173.376 233.5,175.5C 233.167,174.833 232.833,174.167 232.5,173.5C 235.143,163.235 235.143,153.735 232.5,145C 233.091,140.181 233.424,135.348 233.5,130.5 Z"/></g>
<g><path style="opacity:1" fill="#ed919a" d="M 161.5,92.5 C 162.117,92.6107 162.617,92.944 163,93.5C 163.153,101.058 163.986,108.391 165.5,115.5C 166.677,129.251 169.344,142.585 173.5,155.5C 173.059,166.273 173.726,176.94 175.5,187.5C 174.833,187.5 174.167,187.5 173.5,187.5C 169.077,158.093 165.077,128.759 161.5,99.5C 161.5,97.5 161.5,95.5 161.5,93.5C 161.5,93.1667 161.5,92.8333 161.5,92.5 Z"/></g>
<g><path style="opacity:1" fill="#490707" d="M 226.5,174.5 C 226.198,171.941 226.532,169.607 227.5,167.5C 229.428,162.747 230.928,157.747 232,152.5C 231.551,158.866 230.551,165.199 229,171.5C 228.623,172.942 227.79,173.942 226.5,174.5 Z"/></g>
<g><path style="opacity:1" fill="#4d1215" d="M 50.5,151.5 C 50.4013,154.237 50.7347,156.904 51.5,159.5C 54.0182,177.001 57.1849,194.335 61,211.5C 61.0995,213.653 61.9328,215.319 63.5,216.5C 63.7329,218.062 64.3995,219.395 65.5,220.5C 64.8333,220.5 64.5,220.833 64.5,221.5C 62.2918,220.106 60.7918,218.106 60,215.5C 56.5373,200.647 53.8706,185.647 52,170.5C 51.2987,166.891 50.1321,163.558 48.5,160.5C 48.335,157.15 48.5017,153.817 49,150.5C 49.3826,151.056 49.8826,151.389 50.5,151.5 Z"/></g>
<g><path style="opacity:1" fill="#a91d20" d="M 147.5,91.5 C 155.127,112.022 159.96,133.355 162,155.5C 162.196,157.286 163.029,158.619 164.5,159.5C 165.167,165.833 165.833,172.167 166.5,178.5C 167.72,178.887 168.387,179.72 168.5,181C 167.596,185.111 167.263,189.278 167.5,193.5C 165.486,193.392 163.82,194.058 162.5,195.5C 162.822,192.694 163.822,190.194 165.5,188C 165.698,175.081 163.532,162.581 159,150.5C 157.311,137.721 154.978,125.054 152,112.5C 148.911,105.89 147.411,98.8905 147.5,91.5 Z"/></g>
<g><path style="opacity:1" fill="#f3818b" d="M 173.5,155.5 C 176.618,164.022 179.451,172.688 182,181.5C 183.552,182.966 185.386,183.966 187.5,184.5C 188.425,185.357 189.092,186.357 189.5,187.5C 187.167,187.5 184.833,187.5 182.5,187.5C 180.167,187.5 177.833,187.5 175.5,187.5C 173.726,176.94 173.059,166.273 173.5,155.5 Z"/></g>
<g><path style="opacity:1" fill="#8c2020" d="M 286.5,164.5 C 287.892,166.273 289.059,168.273 290,170.5C 290.499,174.821 290.666,179.154 290.5,183.5C 289.265,183.721 288.265,184.388 287.5,185.5C 286.534,183.604 286.201,181.604 286.5,179.5C 285.167,179.5 283.833,179.5 282.5,179.5C 282.819,184.363 282.486,189.03 281.5,193.5C 279.974,186.06 280.308,178.727 282.5,171.5C 282.215,169.712 282.548,168.045 283.5,166.5C 285.396,167.639 286.396,166.973 286.5,164.5 Z"/></g>
<g><path style="opacity:1" fill="#f09da5" d="M 10.5,142.5 C 11.1667,142.833 11.8333,143.167 12.5,143.5C 13.3024,146.574 14.3024,149.574 15.5,152.5C 15.67,153.822 15.3366,154.989 14.5,156C 15.4884,159.745 16.155,163.578 16.5,167.5C 17.5,167.5 18.5,167.5 19.5,167.5C 19.3143,174.881 19.8143,182.214 21,189.5C 22.753,195.587 24.5863,201.587 26.5,207.5C 20.2287,195.338 16.562,182.338 15.5,168.5C 14.2586,159.769 12.5919,151.102 10.5,142.5 Z"/></g>
<g><path style="opacity:1" fill="#912223" d="M 232.5,109.5 C 233.222,109.918 233.722,110.584 234,111.5C 235.05,116.448 235.55,121.448 235.5,126.5C 234.5,126.5 233.5,126.5 232.5,126.5C 232.433,127.959 232.766,129.292 233.5,130.5C 233.424,135.348 233.091,140.181 232.5,145C 235.143,153.735 235.143,163.235 232.5,173.5C 232.833,174.167 233.167,174.833 233.5,175.5C 234.149,173.376 234.983,171.376 236,169.5C 236.333,163.5 236.667,157.5 237,151.5C 237.21,153.058 237.71,154.391 238.5,155.5C 239.485,162.153 239.652,168.82 239,175.5C 240.901,167.684 243.401,160.017 246.5,152.5C 247.711,149.734 249.044,147.068 250.5,144.5C 250.57,147.215 250.903,150.048 251.5,153C 250.552,153.483 249.552,153.649 248.5,153.5C 247.403,156.625 246.403,159.792 245.5,163C 246.097,164.062 246.43,165.228 246.5,166.5C 245.715,172.379 244.382,178.045 242.5,183.5C 241.842,184.398 241.176,185.398 240.5,186.5C 239.914,186.291 239.414,185.957 239,185.5C 238.208,188.106 236.708,190.106 234.5,191.5C 235.905,187.387 237.239,183.22 238.5,179C 238.167,178.5 237.833,178 237.5,177.5C 235.852,186.465 231.852,194.132 225.5,200.5C 224.167,201.167 222.833,201.833 221.5,202.5C 219.5,201.833 217.5,201.167 215.5,200.5C 223.269,197.727 225.936,192.227 223.5,184C 224.217,182.469 225.217,181.136 226.5,180C 225.852,178.56 225.519,177.06 225.5,175.5C 226.167,175.5 226.5,175.167 226.5,174.5C 227.79,173.942 228.623,172.942 229,171.5C 230.551,165.199 231.551,158.866 232,152.5C 230.928,157.747 229.428,162.747 227.5,167.5C 229.244,157.215 230.577,146.882 231.5,136.5C 231.528,128.031 230.528,119.698 228.5,111.5C 228.833,110.167 229.167,108.833 229.5,107.5C 230.061,111.095 231.228,114.428 233,117.5C 233.175,114.843 233.008,112.176 232.5,109.5 Z"/></g>
<g><path style="opacity:1" fill="#3f0d11" d="M 111.5,173.5 C 112.088,176.61 112.755,179.61 113.5,182.5C 114.294,189.165 115.96,195.499 118.5,201.5C 118.5,202.833 118.5,204.167 118.5,205.5C 115.294,200.056 113.294,194.056 112.5,187.5C 110.531,182.821 110.197,178.155 111.5,173.5 Z"/></g>
<g><path style="opacity:1" fill="#e9858f" d="M 107.5,141.5 C 111.092,153.013 113.425,165.013 114.5,177.5C 113.954,179.135 113.62,180.801 113.5,182.5C 112.755,179.61 112.088,176.61 111.5,173.5C 109.949,162.862 108.616,152.196 107.5,141.5 Z"/></g>
<g><path style="opacity:1" fill="#f27781" d="M 106.5,83.5 C 107.822,83.33 108.989,83.6634 110,84.5C 112.43,87.7016 114.597,91.0349 116.5,94.5C 114.039,99.7186 111.872,105.052 110,110.5C 106.906,119.038 108.24,126.704 114,133.5C 113.071,140.746 112.737,148.08 113,155.5C 115.21,164.75 117.21,174.083 119,183.5C 120.441,186.88 122.274,190.047 124.5,193C 130.193,195.216 135.527,197.716 140.5,200.5C 134.974,200.179 129.64,200.512 124.5,201.5C 122.5,201.5 120.5,201.5 118.5,201.5C 115.96,195.499 114.294,189.165 113.5,182.5C 113.62,180.801 113.954,179.135 114.5,177.5C 113.425,165.013 111.092,153.013 107.5,141.5C 106.5,138.167 105.5,134.833 104.5,131.5C 103.126,121.543 102.126,111.543 101.5,101.5C 102.038,99.8828 102.371,98.2161 102.5,96.5C 104.781,92.561 106.114,88.2277 106.5,83.5 Z"/></g>
<g><path style="opacity:1" fill="#671d1e" d="M 104.5,131.5 C 105.5,134.833 106.5,138.167 107.5,141.5C 108.616,152.196 109.949,162.862 111.5,173.5C 110.197,178.155 110.531,182.821 112.5,187.5C 111.5,187.5 110.5,187.5 109.5,187.5C 108.834,179.517 108.501,171.517 108.5,163.5C 106.948,152.893 105.615,142.226 104.5,131.5 Z"/></g>
<g><path style="opacity:1" fill="#c82025" d="M 45.5,93.5 C 47.1695,95.5921 48.8362,97.5921 50.5,99.5C 51.5758,102.648 52.9091,105.648 54.5,108.5C 54.5,109.5 54.5,110.5 54.5,111.5C 55.8775,112.234 57.3775,112.901 59,113.5C 59.4828,112.552 59.6495,111.552 59.5,110.5C 60.3764,110.369 61.0431,110.702 61.5,111.5C 60.7542,112.736 60.4208,114.07 60.5,115.5C 61.552,115.351 62.552,115.517 63.5,116C 63.1667,116.333 62.8333,116.667 62.5,117C 67.2456,118.275 67.5789,120.109 63.5,122.5C 64.617,123.949 65.2837,125.616 65.5,127.5C 64.0779,132.557 64.9112,137.224 68,141.5C 68.7096,140.027 69.8762,139.36 71.5,139.5C 71.1337,149.679 72.4671,149.679 75.5,139.5C 75.8333,143.833 76.1667,148.167 76.5,152.5C 76.1302,161.55 75.4635,170.55 74.5,179.5C 75.5,179.5 76.5,179.5 77.5,179.5C 76.2307,185.95 77.064,192.283 80,198.5C 80.6543,197.304 81.1543,197.304 81.5,198.5C 80.9747,199.192 80.3081,199.692 79.5,200C 80.3567,200.689 81.0233,201.522 81.5,202.5C 80.2889,203.72 80.2889,204.887 81.5,206C 79.8071,208.952 77.9738,209.118 76,206.5C 75.7489,208.433 75.2489,210.266 74.5,212C 79.9501,212.254 85.2835,212.421 90.5,212.5C 89.1667,213.5 87.8333,214.5 86.5,215.5C 82.3939,215.74 78.3939,216.407 74.5,217.5C 73.0413,217.433 71.7079,217.766 70.5,218.5C 71.3351,217.057 72.6684,216.057 74.5,215.5C 73.0095,214.756 71.5095,214.09 70,213.5C 65.8492,188.746 61.1825,164.079 56,139.5C 57.3033,127.926 54.47,117.593 47.5,108.5C 45.7134,110.858 44.7134,113.525 44.5,116.5C 43.8826,116.389 43.3826,116.056 43,115.5C 42.0882,118.997 40.4216,121.997 38,124.5C 36.2456,136.1 35.5789,147.767 36,159.5C 38.1317,160.78 40.2984,160.78 42.5,159.5C 43.1924,160.025 43.6924,160.692 44,161.5C 47.7416,177.024 50.7416,192.691 53,208.5C 55.0228,213.52 56.5228,218.686 57.5,224C 57.3086,226.936 56.3086,229.436 54.5,231.5C 48.8017,232.168 43.4683,231.168 38.5,228.5C 36.2458,219.013 34.5791,209.347 33.5,199.5C 30.4783,199.572 28.3116,198.238 27,195.5C 23.814,183.996 22.6473,172.33 23.5,160.5C 21.9797,157.402 21.1463,154.069 21,150.5C 20.6174,149.944 20.1174,149.611 19.5,149.5C 17.6884,146.554 15.8551,143.554 14,140.5C 13.1841,139.177 12.0174,138.511 10.5,138.5C 10.2049,132.989 11.0382,127.656 13,122.5C 16.8149,117.713 20.6483,113.046 24.5,108.5C 24.8333,108.5 25.1667,108.5 25.5,108.5C 28.9422,106.119 32.6089,105.452 36.5,106.5C 36.3253,104.379 36.6586,102.379 37.5,100.5C 38.5839,97.9959 39.9172,95.6626 41.5,93.5C 42.8333,92.1667 44.1667,92.1667 45.5,93.5 Z"/></g>
<g><path style="opacity:1" fill="#751d1d" d="M 44.5,124.5 C 43.8592,125.482 43.1925,126.482 42.5,127.5C 45.928,132.582 47.428,138.249 47,144.5C 47.3333,144.833 47.6667,145.167 48,145.5C 48.4955,143.527 48.6621,141.527 48.5,139.5C 49.4824,143.316 50.1491,147.316 50.5,151.5C 49.8826,151.389 49.3826,151.056 49,150.5C 48.5017,153.817 48.335,157.15 48.5,160.5C 47.5489,159.081 47.2155,157.415 47.5,155.5C 43.9589,156.759 40.2923,157.759 36.5,158.5C 38.3334,150 39.5001,141.334 40,132.5C 41.6004,130.538 41.767,128.372 40.5,126C 40.8333,125.167 41.1667,124.333 41.5,123.5C 42.4168,124.127 43.4168,124.461 44.5,124.5 Z"/></g>
<g><path style="opacity:1" fill="#300e0d" d="M 45.5,121.5 C 47.5745,127.28 48.5745,133.28 48.5,139.5C 48.6621,141.527 48.4955,143.527 48,145.5C 47.6667,145.167 47.3333,144.833 47,144.5C 47.428,138.249 45.928,132.582 42.5,127.5C 43.1925,126.482 43.8592,125.482 44.5,124.5C 44.2627,123.209 44.596,122.209 45.5,121.5 Z"/></g>
<g><path style="opacity:1" fill="#9f1f1f" d="M 282.5,171.5 C 280.308,178.727 279.974,186.06 281.5,193.5C 281.5,194.167 281.5,194.833 281.5,195.5C 275.314,203.234 269.647,211.234 264.5,219.5C 262.672,220.794 260.672,221.794 258.5,222.5C 258.737,221.209 258.404,220.209 257.5,219.5C 262.059,211.385 266.392,203.052 270.5,194.5C 270.674,192.139 271.007,189.806 271.5,187.5C 272.5,187.5 273.5,187.5 274.5,187.5C 275.738,183.608 276.905,179.608 278,175.5C 280.019,174.643 281.519,173.309 282.5,171.5 Z"/></g>
<g><path style="opacity:1" fill="#66201f" d="M 290.5,183.5 C 288.238,188.09 285.238,192.09 281.5,195.5C 281.5,194.833 281.5,194.167 281.5,193.5C 282.486,189.03 282.819,184.363 282.5,179.5C 283.833,179.5 285.167,179.5 286.5,179.5C 286.201,181.604 286.534,183.604 287.5,185.5C 288.265,184.388 289.265,183.721 290.5,183.5 Z"/></g>
<g><path style="opacity:1" fill="#3d1312" d="M 200.5,186.5 C 201.833,186.5 203.167,186.5 204.5,186.5C 200.934,187.903 197.267,188.903 193.5,189.5C 189.351,190.08 185.684,189.414 182.5,187.5C 184.833,187.5 187.167,187.5 189.5,187.5C 193.371,187.815 197.038,187.482 200.5,186.5 Z"/></g>
<g><path style="opacity:1" fill="#6c1b1b" d="M 210.5,184.5 C 213.271,184.421 215.937,184.921 218.5,186C 214.971,187.466 211.305,188.466 207.5,189C 206.837,190.518 205.837,191.685 204.5,192.5C 199.188,191.891 193.854,191.391 188.5,191C 191.016,190.909 192.682,190.409 193.5,189.5C 197.267,188.903 200.934,187.903 204.5,186.5C 206.302,185.542 208.302,184.875 210.5,184.5 Z"/></g>
<g><path style="opacity:1" fill="#af2022" d="M 225.5,175.5 C 225.519,177.06 225.852,178.56 226.5,180C 225.217,181.136 224.217,182.469 223.5,184C 225.936,192.227 223.269,197.727 215.5,200.5C 211.802,200.552 208.135,200.886 204.5,201.5C 203.022,201.762 201.689,201.429 200.5,200.5C 200.709,199.914 201.043,199.414 201.5,199C 200.376,198.751 199.376,198.251 198.5,197.5C 200.423,196.692 202.423,196.192 204.5,196C 203.5,195.667 202.5,195.333 201.5,195C 203.119,194.764 204.119,193.931 204.5,192.5C 205.837,191.685 206.837,190.518 207.5,189C 211.305,188.466 214.971,187.466 218.5,186C 215.937,184.921 213.271,184.421 210.5,184.5C 214.233,183.023 218.233,182.189 222.5,182C 223.926,179.955 224.926,177.788 225.5,175.5 Z"/></g>
<g><path style="opacity:0.733" fill="#3f2a2c" d="M 15.5,168.5 C 16.562,182.338 20.2287,195.338 26.5,207.5C 30.2698,218.918 34.9364,229.918 40.5,240.5C 41.1667,241.167 41.8333,241.833 42.5,242.5C 41.8333,242.5 41.1667,242.5 40.5,242.5C 37.6352,239.81 35.4685,236.477 34,232.5C 27.4999,217.83 21.8333,202.83 17,187.5C 15.584,182.588 14.7507,177.588 14.5,172.5C 14.2322,170.901 14.5655,169.568 15.5,168.5 Z"/></g>
<g><path style="opacity:1" fill="#a01f21" d="M 173.5,187.5 C 174.167,187.5 174.833,187.5 175.5,187.5C 177.833,187.5 180.167,187.5 182.5,187.5C 185.684,189.414 189.351,190.08 193.5,189.5C 192.682,190.409 191.016,190.909 188.5,191C 193.854,191.391 199.188,191.891 204.5,192.5C 204.119,193.931 203.119,194.764 201.5,195C 202.5,195.333 203.5,195.667 204.5,196C 202.423,196.192 200.423,196.692 198.5,197.5C 199.376,198.251 200.376,198.751 201.5,199C 201.043,199.414 200.709,199.914 200.5,200.5C 201.689,201.429 203.022,201.762 204.5,201.5C 197.173,203.035 189.673,204.035 182,204.5C 179.558,201.962 179.058,199.128 180.5,196C 178.553,196.536 176.553,196.202 174.5,195C 173.167,194.333 173.167,193.667 174.5,193C 173.255,192.209 171.922,191.709 170.5,191.5C 170.285,189.821 170.952,188.821 172.5,188.5C 173.167,188.5 173.5,188.167 173.5,187.5 Z"/></g>
<g><path style="opacity:1" fill="#500d11" d="M 234.5,191.5 C 231.433,196.741 227.767,201.574 223.5,206C 221.527,206.495 219.527,206.662 217.5,206.5C 216.833,206.5 216.167,206.5 215.5,206.5C 219.974,206.479 223.641,204.645 226.5,201C 226.272,200.601 225.938,200.435 225.5,200.5C 231.852,194.132 235.852,186.465 237.5,177.5C 237.833,178 238.167,178.5 238.5,179C 237.239,183.22 235.905,187.387 234.5,191.5 Z"/></g>
<g><path style="opacity:1" fill="#cd2c35" d="M 12.5,143.5 C 14.7519,146.932 17.2519,150.266 20,153.5C 20.195,152.181 20.0283,150.847 19.5,149.5C 20.1174,149.611 20.6174,149.944 21,150.5C 21.1463,154.069 21.9797,157.402 23.5,160.5C 22.6473,172.33 23.814,183.996 27,195.5C 28.3116,198.238 30.4783,199.572 33.5,199.5C 34.5791,209.347 36.2458,219.013 38.5,228.5C 43.4683,231.168 48.8017,232.168 54.5,231.5C 54.5,232.167 54.1667,232.5 53.5,232.5C 48.4012,232.825 43.4012,232.325 38.5,231C 35.2365,224.952 33.2365,218.452 32.5,211.5C 30.2848,206.068 27.7848,200.735 25,195.5C 21.9612,183.392 20.2945,171.059 20,158.5C 18.6366,156.316 17.1366,154.316 15.5,152.5C 14.3024,149.574 13.3024,146.574 12.5,143.5 Z"/></g>
<g><path style="opacity:1" fill="#a01f20" d="M 242.5,183.5 C 242.706,188.422 241.706,193.089 239.5,197.5C 240.865,200.687 241.699,204.02 242,207.5C 244.188,208.889 245.354,210.889 245.5,213.5C 244.539,215.265 244.205,217.265 244.5,219.5C 242.625,213.55 239.625,208.216 235.5,203.5C 233.235,202.353 230.902,202.186 228.5,203C 230.037,204.11 230.703,205.61 230.5,207.5C 229.486,208.674 228.153,209.34 226.5,209.5C 220.668,211.457 214.668,212.457 208.5,212.5C 212.252,210.801 216.252,209.468 220.5,208.5C 219.398,207.824 218.398,207.158 217.5,206.5C 219.527,206.662 221.527,206.495 223.5,206C 227.767,201.574 231.433,196.741 234.5,191.5C 236.708,190.106 238.208,188.106 239,185.5C 239.414,185.957 239.914,186.291 240.5,186.5C 241.176,185.398 241.842,184.398 242.5,183.5 Z"/></g>
<g><path style="opacity:1" fill="#e59197" d="M 51.5,159.5 C 52.6935,159.97 53.3601,160.97 53.5,162.5C 56.8379,180.514 60.1712,198.514 63.5,216.5C 61.9328,215.319 61.0995,213.653 61,211.5C 57.1849,194.335 54.0182,177.001 51.5,159.5 Z"/></g>
<g><path style="opacity:1" fill="#af2123" d="M 246.5,101.5 C 248.188,103.854 250.188,105.854 252.5,107.5C 253.448,110.14 254.448,112.807 255.5,115.5C 253.178,112.92 251.512,113.42 250.5,117C 250.898,127.881 252.232,138.548 254.5,149C 254.206,153.854 253.706,158.688 253,163.5C 249.193,174.088 245.693,184.755 242.5,195.5C 244.696,201.189 247.529,206.523 251,211.5C 252.265,215.215 252.765,218.882 252.5,222.5C 253.5,222.5 254.5,222.5 255.5,222.5C 257.88,214.842 261.047,207.508 265,200.5C 266.409,198.046 268.242,196.046 270.5,194.5C 266.392,203.052 262.059,211.385 257.5,219.5C 257.201,221.973 256.201,224.14 254.5,226C 255.322,228.434 255.656,230.934 255.5,233.5C 253.883,236.784 251.55,239.451 248.5,241.5C 249.708,238.928 249.375,236.594 247.5,234.5C 247.5,233.833 247.5,233.167 247.5,232.5C 250.113,234.021 251.446,233.188 251.5,230C 250.212,224.222 248.212,218.722 245.5,213.5C 245.354,210.889 244.188,208.889 242,207.5C 241.699,204.02 240.865,200.687 239.5,197.5C 241.706,193.089 242.706,188.422 242.5,183.5C 244.382,178.045 245.715,172.379 246.5,166.5C 246.43,165.228 246.097,164.062 245.5,163C 246.403,159.792 247.403,156.625 248.5,153.5C 249.552,153.649 250.552,153.483 251.5,153C 250.903,150.048 250.57,147.215 250.5,144.5C 250.784,142.585 250.451,140.919 249.5,139.5C 249.5,136.833 249.5,134.167 249.5,131.5C 249.974,121.576 248.308,112.076 244.5,103C 244.836,101.97 245.503,101.47 246.5,101.5 Z"/></g>
<g><path style="opacity:1" fill="#f4818b" d="M 15.5,152.5 C 17.1366,154.316 18.6366,156.316 20,158.5C 20.2945,171.059 21.9612,183.392 25,195.5C 27.7848,200.735 30.2848,206.068 32.5,211.5C 31.5272,210.209 30.5272,210.209 29.5,211.5C 28.4793,210.099 27.4793,208.765 26.5,207.5C 24.5863,201.587 22.753,195.587 21,189.5C 19.8143,182.214 19.3143,174.881 19.5,167.5C 18.5,167.5 17.5,167.5 16.5,167.5C 16.155,163.578 15.4884,159.745 14.5,156C 15.3366,154.989 15.67,153.822 15.5,152.5 Z"/></g>
<g><path style="opacity:1" fill="#671a1a" d="M 152.5,197.5 C 153.833,197.5 155.167,197.5 156.5,197.5C 156.782,198.778 157.449,199.778 158.5,200.5C 155.185,201.329 151.852,202.162 148.5,203C 150.473,203.495 152.473,203.662 154.5,203.5C 154.64,205.124 153.973,206.29 152.5,207C 148.514,207.499 144.514,207.666 140.5,207.5C 140.5,206.5 140.5,205.5 140.5,204.5C 129.854,204.329 129.854,203.829 140.5,203C 134.984,202.827 129.651,202.327 124.5,201.5C 129.64,200.512 134.974,200.179 140.5,200.5C 144.736,199.992 148.736,198.992 152.5,197.5 Z"/></g>
<g><path style="opacity:1" fill="#21110e" d="M 221.5,202.5 C 222.833,201.833 224.167,201.167 225.5,200.5C 225.938,200.435 226.272,200.601 226.5,201C 223.641,204.645 219.974,206.479 215.5,206.5C 209.049,206.91 202.716,207.91 196.5,209.5C 192.447,210.013 188.447,210.846 184.5,212C 177.237,214.958 169.904,217.958 162.5,221C 157.637,224.4 153.303,228.233 149.5,232.5C 148.957,232.44 148.624,232.107 148.5,231.5C 149.763,229.971 150.763,228.305 151.5,226.5C 153.754,225.876 155.421,224.543 156.5,222.5C 158.609,221.609 160.609,220.442 162.5,219C 160.981,219.331 159.648,219.164 158.5,218.5C 164.727,215.27 170.393,211.27 175.5,206.5C 176.332,203.518 176.499,200.518 176,197.5C 177.595,200.121 179.095,202.787 180.5,205.5C 183.879,206.887 187.379,207.887 191,208.5C 201.293,206.441 211.46,204.441 221.5,202.5 Z"/></g>
<g><path style="opacity:1" fill="#ee8d96" d="M 26.5,207.5 C 27.4793,208.765 28.4793,210.099 29.5,211.5C 30.5272,210.209 31.5272,210.209 32.5,211.5C 33.2365,218.452 35.2365,224.952 38.5,231C 43.4012,232.325 48.4012,232.825 53.5,232.5C 53.5,232.833 53.5,233.167 53.5,233.5C 50.3037,234.929 47.3037,236.595 44.5,238.5C 42.8007,238.527 41.4674,239.194 40.5,240.5C 34.9364,229.918 30.2698,218.918 26.5,207.5 Z"/></g>
<g><path style="opacity:1" fill="#7c1d1d" d="M 170.5,191.5 C 171.922,191.709 173.255,192.209 174.5,193C 173.167,193.667 173.167,194.333 174.5,195C 176.553,196.202 178.553,196.536 180.5,196C 179.058,199.128 179.558,201.962 182,204.5C 189.673,204.035 197.173,203.035 204.5,201.5C 208.135,200.886 211.802,200.552 215.5,200.5C 217.5,201.167 219.5,201.833 221.5,202.5C 211.46,204.441 201.293,206.441 191,208.5C 187.379,207.887 183.879,206.887 180.5,205.5C 179.095,202.787 177.595,200.121 176,197.5C 176.499,200.518 176.332,203.518 175.5,206.5C 170.393,211.27 164.727,215.27 158.5,218.5C 156.565,219.15 154.565,219.483 152.5,219.5C 149.753,219.813 147.086,219.48 144.5,218.5C 150.006,217.529 155.339,216.029 160.5,214C 159.207,213.51 157.873,213.343 156.5,213.5C 158.265,212.539 160.265,212.205 162.5,212.5C 162.5,211.5 162.5,210.5 162.5,209.5C 166.466,208.385 169.466,205.885 171.5,202C 170.289,200.887 170.289,199.72 171.5,198.5C 170.399,196.898 168.899,195.898 167,195.5C 164.528,196.322 162.028,196.989 159.5,197.5C 159.737,198.791 159.404,199.791 158.5,200.5C 157.449,199.778 156.782,198.778 156.5,197.5C 158.302,196.542 160.302,195.875 162.5,195.5C 163.82,194.058 165.486,193.392 167.5,193.5C 168.5,192.833 169.5,192.167 170.5,191.5 Z"/></g>
<g><path style="opacity:1" fill="#6b2326" d="M 176.5,208.5 C 179.572,208.183 182.572,208.516 185.5,209.5C 180.819,210.672 176.319,212.338 172,214.5C 171.5,214.333 171,214.167 170.5,214C 172.763,212.383 174.763,210.55 176.5,208.5 Z"/></g>
<g><path style="opacity:1" fill="#8d1e1f" d="M 215.5,206.5 C 216.167,206.5 216.833,206.5 217.5,206.5C 218.398,207.158 219.398,207.824 220.5,208.5C 216.252,209.468 212.252,210.801 208.5,212.5C 201.87,214.161 195.203,215.828 188.5,217.5C 191.651,215.914 194.985,214.414 198.5,213C 193.468,212.596 192.801,211.429 196.5,209.5C 202.716,207.91 209.049,206.91 215.5,206.5 Z"/></g>
<g><path style="opacity:1" fill="#422726" d="M 252.5,107.5 C 265.154,126.129 277.32,145.129 289,164.5C 295.105,173.744 294.771,182.744 288,191.5C 276.528,204.443 266.528,218.443 258,233.5C 254.629,238.748 250.462,243.248 245.5,247C 244.207,247.49 242.873,247.657 241.5,247.5C 236.821,247.334 232.155,247.501 227.5,248C 226.944,248.383 226.611,248.883 226.5,249.5C 203.355,253.739 180.189,258.406 157,263.5C 155.698,262.915 154.531,262.249 153.5,261.5C 153.167,260.833 152.833,260.167 152.5,259.5C 155.089,261.157 157.756,261.491 160.5,260.5C 180.287,256.057 200.287,252.557 220.5,250C 221.672,249.581 222.672,248.915 223.5,248C 220.833,247.333 218.167,246.667 215.5,246C 217.134,245.506 218.801,245.34 220.5,245.5C 228.855,246.91 237.188,246.743 245.5,245C 246.71,243.961 247.71,242.794 248.5,241.5C 251.55,239.451 253.883,236.784 255.5,233.5C 258.642,228.953 261.642,224.287 264.5,219.5C 269.647,211.234 275.314,203.234 281.5,195.5C 285.238,192.09 288.238,188.09 290.5,183.5C 290.666,179.154 290.499,174.821 290,170.5C 289.059,168.273 287.892,166.273 286.5,164.5C 276.891,150.278 268.058,135.612 260,120.5C 258.483,118.76 256.983,117.094 255.5,115.5C 254.448,112.807 253.448,110.14 252.5,107.5 Z"/></g>
<g><path style="opacity:1" fill="#9e2123" d="M 156.5,213.5 C 149.469,214.784 142.469,216.284 135.5,218C 134.944,218.383 134.611,218.883 134.5,219.5C 131.774,219.736 129.441,218.903 127.5,217C 124.337,213.109 121.337,209.276 118.5,205.5C 118.5,204.167 118.5,202.833 118.5,201.5C 120.5,201.5 122.5,201.5 124.5,201.5C 129.651,202.327 134.984,202.827 140.5,203C 129.854,203.829 129.854,204.329 140.5,204.5C 140.5,205.5 140.5,206.5 140.5,207.5C 144.514,207.666 148.514,207.499 152.5,207C 153.973,206.29 154.64,205.124 154.5,203.5C 152.473,203.662 150.473,203.495 148.5,203C 151.852,202.162 155.185,201.329 158.5,200.5C 159.404,199.791 159.737,198.791 159.5,197.5C 162.028,196.989 164.528,196.322 167,195.5C 168.899,195.898 170.399,196.898 171.5,198.5C 170.289,199.72 170.289,200.887 171.5,202C 169.466,205.885 166.466,208.385 162.5,209.5C 162.5,210.5 162.5,211.5 162.5,212.5C 160.265,212.205 158.265,212.539 156.5,213.5 Z"/></g>
<g><path style="opacity:1" fill="#d5333e" d="M 244.5,219.5 C 246.283,223.634 247.283,227.967 247.5,232.5C 247.5,233.167 247.5,233.833 247.5,234.5C 245.792,236.216 244.458,238.216 243.5,240.5C 241.224,239.787 238.891,239.287 236.5,239C 237.358,235.469 238.025,231.635 238.5,227.5C 239.62,231.017 239.62,234.684 238.5,238.5C 244.156,238.133 245.989,235.133 244,229.5C 242.198,222.261 239.698,215.261 236.5,208.5C 234.604,207.534 232.604,207.201 230.5,207.5C 230.703,205.61 230.037,204.11 228.5,203C 230.902,202.186 233.235,202.353 235.5,203.5C 239.625,208.216 242.625,213.55 244.5,219.5 Z"/></g>
<g><path style="opacity:1" fill="#641a1a" d="M 74.5,217.5 C 78.3939,216.407 82.3939,215.74 86.5,215.5C 89.2646,215.202 91.7646,214.202 94,212.5C 94.658,214.108 94.158,215.275 92.5,216C 93.91,216.368 94.91,217.201 95.5,218.5C 93.9275,219.66 92.2608,220.66 90.5,221.5C 87.6517,219.432 84.6517,219.098 81.5,220.5C 78.6549,220.234 76.3216,219.234 74.5,217.5 Z"/></g>
<g><path style="opacity:1" fill="#5e1c1a" d="M 156.5,213.5 C 157.873,213.343 159.207,213.51 160.5,214C 155.339,216.029 150.006,217.529 144.5,218.5C 147.086,219.48 149.753,219.813 152.5,219.5C 149.474,221.019 146.141,221.685 142.5,221.5C 140.167,221.333 137.833,221.167 135.5,221C 134.944,220.617 134.611,220.117 134.5,219.5C 134.611,218.883 134.944,218.383 135.5,218C 142.469,216.284 149.469,214.784 156.5,213.5 Z"/></g>
<g><path style="opacity:1" fill="#8a1d1e" d="M 108.5,163.5 C 108.501,171.517 108.834,179.517 109.5,187.5C 110.5,187.5 111.5,187.5 112.5,187.5C 113.294,194.056 115.294,200.056 118.5,205.5C 119.527,209.217 121.361,212.55 124,215.5C 125.166,218.927 124.332,221.593 121.5,223.5C 119.177,222.418 116.843,222.585 114.5,224C 108.875,226.641 103.542,229.474 98.5,232.5C 92.5903,234.605 91.5903,233.605 95.5,229.5C 91.6999,227.034 88.3666,227.7 85.5,231.5C 86.325,232.386 87.325,232.719 88.5,232.5C 88.7148,234.179 88.0481,235.179 86.5,235.5C 78.6966,232.032 72.03,227.032 66.5,220.5C 67.8333,219.833 69.1667,219.167 70.5,218.5C 71.7079,217.766 73.0413,217.433 74.5,217.5C 76.3216,219.234 78.6549,220.234 81.5,220.5C 84.6517,219.098 87.6517,219.432 90.5,221.5C 92.2608,220.66 93.9275,219.66 95.5,218.5C 94.91,217.201 93.91,216.368 92.5,216C 94.158,215.275 94.658,214.108 94,212.5C 91.7646,214.202 89.2646,215.202 86.5,215.5C 87.8333,214.5 89.1667,213.5 90.5,212.5C 94.6283,211.266 98.6283,209.766 102.5,208C 104.734,207.031 106.734,205.698 108.5,204C 107.854,198.4 107.187,192.9 106.5,187.5C 106.499,179.483 106.166,171.483 105.5,163.5C 106.5,163.5 107.5,163.5 108.5,163.5 Z"/></g>
<g><path style="opacity:1" fill="#251c1c" d="M 118.5,205.5 C 121.337,209.276 124.337,213.109 127.5,217C 129.441,218.903 131.774,219.736 134.5,219.5C 134.611,220.117 134.944,220.617 135.5,221C 137.833,221.167 140.167,221.333 142.5,221.5C 146.141,221.685 149.474,221.019 152.5,219.5C 154.565,219.483 156.565,219.15 158.5,218.5C 159.648,219.164 160.981,219.331 162.5,219C 160.609,220.442 158.609,221.609 156.5,222.5C 152.575,222.43 148.909,223.097 145.5,224.5C 138.977,224.443 132.644,223.609 126.5,222C 121.105,227.907 114.771,232.407 107.5,235.5C 101.264,238.593 94.5977,240.26 87.5,240.5C 81.7529,244.45 82.4196,246.784 89.5,247.5C 93.509,249.578 97.8423,250.911 102.5,251.5C 103.167,251.5 103.833,251.5 104.5,251.5C 111.138,252.498 117.805,252.665 124.5,252C 130.698,249.442 136.698,246.608 142.5,243.5C 143.397,242.402 144.23,242.402 145,243.5C 145.098,246.522 145.932,249.189 147.5,251.5C 148.349,254.681 150.015,257.348 152.5,259.5C 151.833,259.5 151.167,259.5 150.5,259.5C 146.711,255.593 144.211,250.926 143,245.5C 128.585,254.932 113.085,257.099 96.5,252C 90.9908,250.664 85.6575,248.83 80.5,246.5C 74.5629,249.787 68.2296,250.954 61.5,250C 55.804,248.794 50.1373,247.461 44.5,246C 42.9069,245.051 41.5736,243.885 40.5,242.5C 41.1667,242.5 41.8333,242.5 42.5,242.5C 50.0366,245.88 58.0366,247.88 66.5,248.5C 71.8362,248.39 76.5029,246.724 80.5,243.5C 81.7281,242.694 82.7281,241.694 83.5,240.5C 85.0481,240.179 85.7148,239.179 85.5,237.5C 87.8333,237.5 90.1667,237.5 92.5,237.5C 94.861,237.326 97.1944,236.993 99.5,236.5C 102.397,235.871 105.064,234.871 107.5,233.5C 111.054,232.231 114.054,230.231 116.5,227.5C 118.754,226.876 120.421,225.543 121.5,223.5C 124.332,221.593 125.166,218.927 124,215.5C 121.361,212.55 119.527,209.217 118.5,205.5 Z"/></g>
<g><path style="opacity:1" fill="#d2232b" d="M 226.5,209.5 C 228.997,212.355 230.664,215.688 231.5,219.5C 232.484,216.572 232.817,213.572 232.5,210.5C 233.833,210.5 235.167,210.5 236.5,210.5C 236.793,216.217 237.46,221.884 238.5,227.5C 238.025,231.635 237.358,235.469 236.5,239C 238.891,239.287 241.224,239.787 243.5,240.5C 244.458,238.216 245.792,236.216 247.5,234.5C 249.375,236.594 249.708,238.928 248.5,241.5C 247.71,242.794 246.71,243.961 245.5,245C 237.188,246.743 228.855,246.91 220.5,245.5C 218.712,244.378 216.712,244.211 214.5,245C 213.774,246.397 212.607,247.231 211,247.5C 206.19,248.193 201.357,248.693 196.5,249C 185.157,253.057 173.491,255.057 161.5,255C 160.211,253.198 158.544,252.031 156.5,251.5C 156.795,249.265 156.461,247.265 155.5,245.5C 155.234,239.885 157.234,235.385 161.5,232C 167.146,229.572 172.146,226.239 176.5,222C 180.723,220.79 184.723,219.29 188.5,217.5C 195.203,215.828 201.87,214.161 208.5,212.5C 214.668,212.457 220.668,211.457 226.5,209.5 Z"/></g>
<g><path style="opacity:1" fill="#6b1818" d="M 245.5,213.5 C 248.212,218.722 250.212,224.222 251.5,230C 251.446,233.188 250.113,234.021 247.5,232.5C 247.283,227.967 246.283,223.634 244.5,219.5C 244.205,217.265 244.539,215.265 245.5,213.5 Z"/></g>
<g><path style="opacity:1" fill="#7b1e1e" d="M 196.5,209.5 C 192.801,211.429 193.468,212.596 198.5,213C 194.985,214.414 191.651,215.914 188.5,217.5C 179.219,219.041 170.552,222.375 162.5,227.5C 161.353,230.987 159.019,232.987 155.5,233.5C 155.927,236.788 155.26,239.788 153.5,242.5C 153.942,243.739 154.609,244.739 155.5,245.5C 156.461,247.265 156.795,249.265 156.5,251.5C 157.458,252.962 158.624,254.295 160,255.5C 160.494,257.134 160.66,258.801 160.5,260.5C 157.756,261.491 155.089,261.157 152.5,259.5C 150.015,257.348 148.349,254.681 147.5,251.5C 145.535,244.758 146.202,238.425 149.5,232.5C 153.303,228.233 157.637,224.4 162.5,221C 169.904,217.958 177.237,214.958 184.5,212C 188.447,210.846 192.447,210.013 196.5,209.5 Z"/></g>
<g><path style="opacity:1" fill="#6c1f22" d="M 257.5,219.5 C 258.404,220.209 258.737,221.209 258.5,222.5C 260.672,221.794 262.672,220.794 264.5,219.5C 261.642,224.287 258.642,228.953 255.5,233.5C 255.656,230.934 255.322,228.434 254.5,226C 256.201,224.14 257.201,221.973 257.5,219.5 Z"/></g>
<g><path style="opacity:1" fill="#501816" d="M 121.5,223.5 C 120.421,225.543 118.754,226.876 116.5,227.5C 115.749,226.427 114.749,226.26 113.5,227C 110.546,230.282 106.88,232.282 102.5,233C 104.134,233.494 105.801,233.66 107.5,233.5C 105.064,234.871 102.397,235.871 99.5,236.5C 99.9528,235.542 100.619,234.708 101.5,234C 100.263,233.768 99.2625,233.268 98.5,232.5C 103.542,229.474 108.875,226.641 114.5,224C 116.843,222.585 119.177,222.418 121.5,223.5 Z"/></g>
<g><path style="opacity:1" fill="#f77580" d="M 230.5,207.5 C 232.604,207.201 234.604,207.534 236.5,208.5C 239.698,215.261 242.198,222.261 244,229.5C 245.989,235.133 244.156,238.133 238.5,238.5C 239.62,234.684 239.62,231.017 238.5,227.5C 237.46,221.884 236.793,216.217 236.5,210.5C 235.167,210.5 233.833,210.5 232.5,210.5C 232.817,213.572 232.484,216.572 231.5,219.5C 230.664,215.688 228.997,212.355 226.5,209.5C 228.153,209.34 229.486,208.674 230.5,207.5 Z"/></g>
<g><path style="opacity:1" fill="#631919" d="M 44.5,238.5 C 47.3037,236.595 50.3037,234.929 53.5,233.5C 56.4118,233.211 58.4118,231.711 59.5,229C 60.448,228.517 61.448,228.351 62.5,228.5C 61.8581,231.914 60.1914,234.747 57.5,237C 53.5979,237.182 49.7646,238.015 46,239.5C 45.2352,239.43 44.7352,239.097 44.5,238.5 Z"/></g>
<g><path style="opacity:1" fill="#761c20" d="M 116.5,227.5 C 114.054,230.231 111.054,232.231 107.5,233.5C 105.801,233.66 104.134,233.494 102.5,233C 106.88,232.282 110.546,230.282 113.5,227C 114.749,226.26 115.749,226.427 116.5,227.5 Z"/></g>
<g><path style="opacity:1" fill="#9e1c1e" d="M 188.5,217.5 C 184.723,219.29 180.723,220.79 176.5,222C 172.146,226.239 167.146,229.572 161.5,232C 157.234,235.385 155.234,239.885 155.5,245.5C 154.609,244.739 153.942,243.739 153.5,242.5C 155.26,239.788 155.927,236.788 155.5,233.5C 159.019,232.987 161.353,230.987 162.5,227.5C 170.552,222.375 179.219,219.041 188.5,217.5 Z"/></g>
<g><path style="opacity:1" fill="#2a110f" d="M 65.5,220.5 C 65.8333,220.5 66.1667,220.5 66.5,220.5C 72.03,227.032 78.6966,232.032 86.5,235.5C 88.5,236.167 90.5,236.833 92.5,237.5C 90.1667,237.5 87.8333,237.5 85.5,237.5C 85.7148,239.179 85.0481,240.179 83.5,240.5C 84.4124,239.262 84.5791,237.928 84,236.5C 76.1223,233.309 69.6223,228.309 64.5,221.5C 64.5,220.833 64.8333,220.5 65.5,220.5 Z"/></g>
<g><path style="opacity:1" fill="#751e1f" d="M 98.5,232.5 C 99.2625,233.268 100.263,233.768 101.5,234C 100.619,234.708 99.9528,235.542 99.5,236.5C 97.1944,236.993 94.861,237.326 92.5,237.5C 90.5,236.833 88.5,236.167 86.5,235.5C 88.0481,235.179 88.7148,234.179 88.5,232.5C 87.325,232.719 86.325,232.386 85.5,231.5C 88.3666,227.7 91.6999,227.034 95.5,229.5C 91.5903,233.605 92.5903,234.605 98.5,232.5 Z"/></g>
<g><path style="opacity:1" fill="#c82127" d="M 156.5,222.5 C 155.421,224.543 153.754,225.876 151.5,226.5C 149.926,226.937 148.759,227.937 148,229.5C 146.409,234.335 144.576,239.001 142.5,243.5C 136.698,246.608 130.698,249.442 124.5,252C 117.805,252.665 111.138,252.498 104.5,251.5C 106.873,247.272 108.373,242.939 109,238.5C 113.468,234.704 117.968,230.87 122.5,227C 124.167,226.667 125.833,226.333 127.5,226C 126.692,225.692 126.025,225.192 125.5,224.5C 132.241,225.181 138.908,225.181 145.5,224.5C 148.909,223.097 152.575,222.43 156.5,222.5 Z"/></g>
<g><path style="opacity:1" fill="#921f20" d="M 44.5,116.5 C 44.6287,118.216 44.962,119.883 45.5,121.5C 44.596,122.209 44.2627,123.209 44.5,124.5C 43.4168,124.461 42.4168,124.127 41.5,123.5C 41.1667,124.333 40.8333,125.167 40.5,126C 41.767,128.372 41.6004,130.538 40,132.5C 39.5001,141.334 38.3334,150 36.5,158.5C 40.2923,157.759 43.9589,156.759 47.5,155.5C 47.2155,157.415 47.5489,159.081 48.5,160.5C 50.1321,163.558 51.2987,166.891 52,170.5C 53.8706,185.647 56.5373,200.647 60,215.5C 60.7918,218.106 62.2918,220.106 64.5,221.5C 69.6223,228.309 76.1223,233.309 84,236.5C 84.5791,237.928 84.4124,239.262 83.5,240.5C 82.7281,241.694 81.7281,242.694 80.5,243.5C 77.2688,243.815 73.9355,243.982 70.5,244C 67.8941,244.45 66.5608,245.95 66.5,248.5C 58.0366,247.88 50.0366,245.88 42.5,242.5C 41.8333,241.833 41.1667,241.167 40.5,240.5C 41.4674,239.194 42.8007,238.527 44.5,238.5C 44.7352,239.097 45.2352,239.43 46,239.5C 49.7646,238.015 53.5979,237.182 57.5,237C 60.1914,234.747 61.8581,231.914 62.5,228.5C 61.448,228.351 60.448,228.517 59.5,229C 58.4118,231.711 56.4118,233.211 53.5,233.5C 53.5,233.167 53.5,232.833 53.5,232.5C 54.1667,232.5 54.5,232.167 54.5,231.5C 56.3086,229.436 57.3086,226.936 57.5,224C 56.5228,218.686 55.0228,213.52 53,208.5C 50.7416,192.691 47.7416,177.024 44,161.5C 43.6924,160.692 43.1924,160.025 42.5,159.5C 40.2984,160.78 38.1317,160.78 36,159.5C 35.5789,147.767 36.2456,136.1 38,124.5C 40.4216,121.997 42.0882,118.997 43,115.5C 43.3826,116.056 43.8826,116.389 44.5,116.5 Z"/></g>
<g><path style="opacity:1" fill="#5a1a1b" d="M 151.5,226.5 C 150.763,228.305 149.763,229.971 148.5,231.5C 148.624,232.107 148.957,232.44 149.5,232.5C 146.202,238.425 145.535,244.758 147.5,251.5C 145.932,249.189 145.098,246.522 145,243.5C 144.23,242.402 143.397,242.402 142.5,243.5C 144.576,239.001 146.409,234.335 148,229.5C 148.759,227.937 149.926,226.937 151.5,226.5 Z"/></g>
<g><path style="opacity:1" fill="#922023" d="M 145.5,224.5 C 138.908,225.181 132.241,225.181 125.5,224.5C 126.025,225.192 126.692,225.692 127.5,226C 125.833,226.333 124.167,226.667 122.5,227C 117.968,230.87 113.468,234.704 109,238.5C 108.373,242.939 106.873,247.272 104.5,251.5C 103.833,251.5 103.167,251.5 102.5,251.5C 102.682,249.409 102.348,247.409 101.5,245.5C 102.09,244.201 103.09,243.368 104.5,243C 102.167,242.667 99.8333,242.333 97.5,242C 98.056,241.617 98.3893,241.117 98.5,240.5C 102.112,239.757 105.112,238.09 107.5,235.5C 114.771,232.407 121.105,227.907 126.5,222C 132.644,223.609 138.977,224.443 145.5,224.5 Z"/></g>
<g><path style="opacity:1" fill="#491d1f" d="M 107.5,235.5 C 105.112,238.09 102.112,239.757 98.5,240.5C 90.6674,240.962 90.6674,241.962 98.5,243.5C 98.33,244.822 98.6634,245.989 99.5,247C 96.6234,247.725 93.9567,247.225 91.5,245.5C 90.4777,245.855 89.811,246.522 89.5,247.5C 82.4196,246.784 81.7529,244.45 87.5,240.5C 94.5977,240.26 101.264,238.593 107.5,235.5 Z"/></g>
<g><path style="opacity:1" fill="#652221" d="M 80.5,243.5 C 76.5029,246.724 71.8362,248.39 66.5,248.5C 66.5608,245.95 67.8941,244.45 70.5,244C 73.9355,243.982 77.2688,243.815 80.5,243.5 Z"/></g>
<g><path style="opacity:1" fill="#661f22" d="M 98.5,240.5 C 98.3893,241.117 98.056,241.617 97.5,242C 99.8333,242.333 102.167,242.667 104.5,243C 103.09,243.368 102.09,244.201 101.5,245.5C 102.348,247.409 102.682,249.409 102.5,251.5C 97.8423,250.911 93.509,249.578 89.5,247.5C 89.811,246.522 90.4777,245.855 91.5,245.5C 93.9567,247.225 96.6234,247.725 99.5,247C 98.6634,245.989 98.33,244.822 98.5,243.5C 90.6674,241.962 90.6674,240.962 98.5,240.5 Z"/></g>
<g><path style="opacity:0.694" fill="#303331" d="M 241.5,247.5 C 236.668,248.4 231.668,249.066 226.5,249.5C 226.611,248.883 226.944,248.383 227.5,248C 232.155,247.501 236.821,247.334 241.5,247.5 Z"/></g>
<g><path style="opacity:1" fill="#a52224" d="M 220.5,245.5 C 218.801,245.34 217.134,245.506 215.5,246C 218.167,246.667 220.833,247.333 223.5,248C 222.672,248.915 221.672,249.581 220.5,250C 200.287,252.557 180.287,256.057 160.5,260.5C 160.66,258.801 160.494,257.134 160,255.5C 158.624,254.295 157.458,252.962 156.5,251.5C 158.544,252.031 160.211,253.198 161.5,255C 173.491,255.057 185.157,253.057 196.5,249C 201.357,248.693 206.19,248.193 211,247.5C 212.607,247.231 213.774,246.397 214.5,245C 216.712,244.211 218.712,244.378 220.5,245.5 Z"/></g>
<g><path style="opacity:0.416" fill="#6f756f" d="M 150.5,259.5 C 151.167,259.5 151.833,259.5 152.5,259.5C 152.833,260.167 153.167,260.833 153.5,261.5C 151.973,261.573 150.973,260.906 150.5,259.5 Z"/></g>
</svg>
